<svg width="1050" height="806" viewBox="0 0 1050 806" fill="none" xmlns="http://www.w3.org/2000/svg">
<g id="Frame">
<g id="bg">
<path id="Vector" opacity="0.1" d="M60.4553 497.042C96.1053 542.372 82.2553 608.582 59.6053 661.622C52.0153 679.382 43.4453 698.162 46.6053 717.202C50.5153 740.482 71.2953 757.512 93.1153 766.532C132.885 782.982 180.485 779.062 217.035 756.322C248.615 736.672 271.235 704.722 303.355 685.972C357.115 654.592 425.535 666.442 483.905 688.062C525.205 703.352 570.355 723.242 611.385 707.262C640.255 696.012 660.215 668.642 671.095 639.622C676.345 625.622 680.155 610.452 690.185 599.342C696.185 592.742 703.925 588.052 711.895 584.102C784.665 548.022 876.565 567.342 947.245 527.332C994.975 500.332 1025.54 449.332 1039.07 396.172C1052.6 343.012 1051.07 287.272 1047.59 232.532C1045.15 193.622 1040.77 152.092 1015.91 122.062C989.605 90.3021 944.475 78.4821 903.685 84.5221C862.895 90.5621 825.915 112.082 793.385 137.422C752.735 169.102 715.025 208.542 665.115 221.422C631.115 230.162 595.365 225.422 560.305 223.722C501.695 220.952 443.065 227.112 384.775 233.842C328.975 240.292 272.775 247.392 219.615 265.542C182.005 278.342 151.865 301.662 116.345 317.912C93.1953 328.532 67.9453 331.462 46.0153 344.992C19.0153 361.652 -5.74472 390.632 1.17528 424.542C7.75528 456.812 41.5353 472.982 60.4553 497.042Z" fill="#6C63FF"/>
</g>
<g id="plants">
<path id="Vector_2" d="M189.78 612.21C189.78 612.21 186.48 514.45 133.59 459.21C111.39 436.03 96.81 406.59 92.95 374.73C91.1456 359.61 90.7305 344.356 91.71 329.16" stroke="#535461" stroke-width="2" stroke-miterlimit="10"/>
<path id="Vector_3" d="M58.58 294.18C62.2 305.1 92.46 330.18 92.46 330.18C92.46 330.18 101.73 291.97 98.11 281.06C96.3715 275.818 92.6218 271.481 87.6859 269.004C82.7499 266.527 77.032 266.112 71.79 267.85C66.548 269.589 62.2113 273.338 59.734 278.274C57.2566 283.21 56.8415 288.928 58.58 294.17V294.18Z" fill="#6C63FF"/>
<path id="Vector_4" d="M46 365.47C55 372.67 94 377.29 94 377.29C94 377.29 81 340.18 72 332.99C67.6704 329.808 62.278 328.422 56.9506 329.124C51.6232 329.826 46.7734 332.56 43.4154 336.755C40.0574 340.95 38.4513 346.28 38.933 351.632C39.4147 356.984 41.9469 361.942 46 365.47V365.47Z" fill="#6C63FF"/>
<path id="Vector_5" d="M81.65 468.32C93.03 470 129.06 454.32 129.06 454.32C129.06 454.32 99.12 428.84 87.74 427.16C82.2766 426.352 76.716 427.748 72.2817 431.04C67.8475 434.333 64.9026 439.252 64.095 444.715C63.2874 450.178 64.6833 455.739 67.9755 460.173C71.2677 464.608 76.1865 467.552 81.65 468.36V468.32Z" fill="#6C63FF"/>
<path id="Vector_6" d="M126.17 540.06C137.1 543.64 175.27 534.24 175.27 534.24C175.27 534.24 150.06 504.07 139.13 500.49C133.883 498.766 128.165 499.197 123.236 501.689C118.307 504.18 114.569 508.528 112.845 513.775C111.121 519.022 111.552 524.74 114.044 529.669C116.535 534.598 120.883 538.336 126.13 540.06H126.17Z" fill="#6C63FF"/>
<path id="Vector_7" d="M136.17 365.64C130.86 375.84 97 395.82 97 395.82C97 395.82 93.92 356.63 99.23 346.42C100.492 343.994 102.219 341.841 104.314 340.083C106.408 338.325 108.828 336.997 111.435 336.174C114.042 335.352 116.786 335.051 119.51 335.288C122.234 335.526 124.884 336.298 127.31 337.56C129.736 338.822 131.889 340.549 133.647 342.644C135.405 344.738 136.733 347.158 137.556 349.765C138.378 352.373 138.679 355.116 138.442 357.84C138.204 360.564 137.432 363.214 136.17 365.64Z" fill="#6C63FF"/>
<path id="Vector_8" d="M187.18 450.2C179.06 458.35 140.78 467.27 140.78 467.27C140.78 467.27 149.57 428.95 157.68 420.8C159.61 418.863 161.902 417.325 164.426 416.274C166.95 415.223 169.657 414.679 172.391 414.674C175.125 414.669 177.834 415.203 180.362 416.244C182.89 417.286 185.188 418.815 187.125 420.745C189.062 422.675 190.6 424.967 191.651 427.491C192.702 430.015 193.246 432.722 193.251 435.456C193.256 438.19 192.722 440.899 191.681 443.427C190.639 445.955 189.11 448.253 187.18 450.19V450.2Z" fill="#6C63FF"/>
<path id="Vector_9" d="M198.63 424.51C198.63 424.51 201.87 371.65 176.2 339.17C165.345 325.616 159.18 308.906 158.63 291.55C158.437 283.306 158.999 275.061 160.31 266.92" stroke="#535461" stroke-width="2" stroke-miterlimit="10"/>
<path id="Vector_10" d="M144.26 246.36C145.65 252.43 160.67 267.51 160.67 267.51C160.67 267.51 167.67 247.39 166.24 241.33C165.912 239.885 165.302 238.52 164.446 237.311C163.59 236.102 162.504 235.073 161.25 234.284C159.997 233.495 158.6 232.96 157.14 232.711C155.68 232.461 154.185 232.502 152.74 232.83C151.295 233.158 149.93 233.768 148.721 234.624C147.512 235.48 146.483 236.566 145.694 237.82C144.905 239.073 144.37 240.47 144.121 241.93C143.871 243.39 143.912 244.885 144.24 246.33L144.26 246.36Z" fill="#6C63FF"/>
<path id="Vector_11" d="M133.8 284.14C138.27 288.48 159.07 292.98 159.07 292.98C159.07 292.98 153.98 272.31 149.51 267.98C148.448 266.948 147.194 266.136 145.818 265.589C144.442 265.043 142.973 264.772 141.492 264.794C140.012 264.815 138.551 265.128 137.191 265.714C135.832 266.3 134.602 267.148 133.57 268.21C132.538 269.272 131.726 270.526 131.179 271.902C130.633 273.278 130.362 274.748 130.384 276.228C130.405 277.708 130.718 279.169 131.304 280.529C131.89 281.888 132.738 283.119 133.8 284.15V284.14Z" fill="#6C63FF"/>
<path id="Vector_12" d="M147.75 341.41C153.75 342.9 174.02 336.28 174.02 336.28C174.02 336.28 159.19 321.01 153.15 319.52C151.713 319.165 150.22 319.097 148.756 319.32C147.292 319.542 145.887 320.051 144.62 320.817C142.061 322.363 140.221 324.862 139.505 327.765C138.789 330.668 139.255 333.736 140.802 336.295C142.348 338.854 144.847 340.694 147.75 341.41V341.41Z" fill="#6C63FF"/>
<path id="Vector_13" d="M168.06 382.35C173.77 384.84 194.82 381.73 194.82 381.73C194.82 381.73 182.82 364.17 177.08 361.73C175.718 361.103 174.244 360.754 172.746 360.704C171.247 360.653 169.753 360.902 168.352 361.437C166.951 361.971 165.67 362.779 164.586 363.815C163.501 364.85 162.634 366.091 162.035 367.466C161.436 368.841 161.117 370.322 161.098 371.821C161.078 373.32 161.358 374.809 161.921 376.198C162.484 377.588 163.319 378.852 164.377 379.915C165.434 380.978 166.693 381.82 168.08 382.39L168.06 382.35Z" fill="#6C63FF"/>
<path id="Vector_14" d="M182.41 288.87C179.03 294.1 159.75 303.12 159.75 303.12C159.75 303.12 160.1 281.84 163.49 276.61C165.116 274.101 167.672 272.341 170.595 271.716C173.519 271.092 176.571 271.654 179.08 273.28C181.589 274.906 183.349 277.462 183.974 280.385C184.598 283.309 184.036 286.361 182.41 288.87V288.87Z" fill="#6C63FF"/>
<path id="Vector_15" d="M205.56 337.06C200.77 341.06 179.67 343.88 179.67 343.88C179.67 343.88 186.37 323.68 191.17 319.7C193.472 317.792 196.438 316.876 199.415 317.155C202.392 317.433 205.137 318.883 207.045 321.185C208.953 323.487 209.869 326.453 209.59 329.43C209.312 332.407 207.862 335.152 205.56 337.06Z" fill="#6C63FF"/>
<path id="Vector_16" opacity="0.5" d="M144.26 246.36C145.65 252.43 160.67 267.51 160.67 267.51C160.67 267.51 167.67 247.39 166.24 241.33C165.912 239.885 165.302 238.52 164.446 237.311C163.59 236.102 162.504 235.073 161.25 234.284C159.997 233.495 158.6 232.96 157.14 232.711C155.68 232.461 154.185 232.502 152.74 232.83C151.295 233.158 149.93 233.768 148.721 234.624C147.512 235.48 146.483 236.566 145.694 237.82C144.905 239.073 144.37 240.47 144.121 241.93C143.871 243.39 143.912 244.885 144.24 246.33L144.26 246.36Z" fill="white"/>
<path id="Vector_17" opacity="0.5" d="M133.8 284.14C138.27 288.48 159.07 292.98 159.07 292.98C159.07 292.98 153.98 272.31 149.51 267.98C148.448 266.948 147.194 266.136 145.818 265.589C144.442 265.043 142.973 264.772 141.492 264.794C140.012 264.815 138.551 265.128 137.191 265.714C135.832 266.3 134.602 267.148 133.57 268.21C132.538 269.272 131.726 270.526 131.179 271.902C130.633 273.278 130.362 274.748 130.384 276.228C130.405 277.708 130.718 279.169 131.304 280.529C131.89 281.888 132.738 283.119 133.8 284.15V284.14Z" fill="white"/>
<path id="Vector_18" opacity="0.5" d="M147.75 341.41C153.75 342.9 174.02 336.28 174.02 336.28C174.02 336.28 159.19 321.01 153.15 319.52C151.713 319.165 150.22 319.097 148.756 319.32C147.292 319.542 145.887 320.051 144.62 320.817C142.061 322.363 140.221 324.862 139.505 327.765C138.789 330.668 139.255 333.736 140.802 336.295C142.348 338.854 144.847 340.694 147.75 341.41V341.41Z" fill="white"/>
<path id="Vector_19" opacity="0.5" d="M168.06 382.35C173.77 384.84 194.82 381.73 194.82 381.73C194.82 381.73 182.82 364.17 177.08 361.73C175.718 361.103 174.244 360.754 172.746 360.704C171.247 360.653 169.753 360.902 168.352 361.437C166.951 361.971 165.67 362.779 164.586 363.815C163.501 364.85 162.634 366.091 162.035 367.466C161.436 368.841 161.117 370.322 161.098 371.821C161.078 373.32 161.358 374.809 161.921 376.198C162.484 377.588 163.319 378.852 164.377 379.915C165.434 380.978 166.693 381.82 168.08 382.39L168.06 382.35Z" fill="white"/>
<path id="Vector_20" opacity="0.5" d="M182.41 288.87C179.03 294.1 159.75 303.12 159.75 303.12C159.75 303.12 160.1 281.84 163.49 276.61C165.116 274.101 167.672 272.341 170.595 271.716C173.519 271.092 176.571 271.654 179.08 273.28C181.589 274.906 183.349 277.462 183.974 280.385C184.598 283.309 184.036 286.361 182.41 288.87V288.87Z" fill="white"/>
<path id="Vector_21" opacity="0.5" d="M205.56 337.06C200.77 341.06 179.67 343.88 179.67 343.88C179.67 343.88 186.37 323.68 191.17 319.7C193.472 317.792 196.438 316.876 199.415 317.155C202.392 317.433 205.137 318.883 207.045 321.185C208.953 323.487 209.869 326.453 209.59 329.43C209.312 332.407 207.862 335.152 205.56 337.06Z" fill="white"/>
</g>
<g id="person">
<path id="Vector_22" d="M214.6 432.576C207.98 441.976 171.75 457.246 171.75 457.246C171.75 457.246 173.93 417.996 180.56 408.586C182.094 406.253 184.081 404.252 186.404 402.703C188.727 401.154 191.337 400.088 194.081 399.568C196.824 399.048 199.644 399.086 202.372 399.678C205.1 400.27 207.682 401.405 209.963 403.015C212.244 404.625 214.178 406.677 215.649 409.05C217.121 411.423 218.1 414.067 218.529 416.826C218.958 419.585 218.828 422.402 218.146 425.109C217.464 427.817 216.245 430.359 214.56 432.586L214.6 432.576Z" fill="#6C63FF"/>
<path id="Vector_23" d="M643.68 439.216C643.68 439.216 627.8 433.836 620.16 447.826C618.144 451.619 617.119 455.859 617.178 460.154C617.238 464.449 618.38 468.66 620.5 472.396C625.5 481.466 635.86 493.246 655.5 492.196C672.12 491.306 677.6 478.626 679.12 466.826C679.695 462.402 679.125 457.904 677.464 453.763C675.802 449.623 673.106 445.978 669.633 443.178C666.159 440.378 662.025 438.517 657.626 437.772C653.228 437.028 648.711 437.425 644.51 438.926L643.68 439.216Z" fill="#6C63FF"/>
<path id="Vector_24" opacity="0.1" d="M623.86 473.656C621.74 469.92 620.598 465.709 620.538 461.414C620.479 457.119 621.504 452.879 623.52 449.086C631.16 435.086 647.04 440.476 647.04 440.476L647.85 440.186C653.905 437.995 660.56 438.145 666.51 440.606C663.226 438.651 659.55 437.448 655.746 437.085C651.942 436.722 648.104 437.207 644.51 438.506L643.7 438.796C643.7 438.796 627.82 433.416 620.18 447.406C618.164 451.199 617.139 455.439 617.198 459.734C617.258 464.029 618.4 468.24 620.52 471.976C623.83 477.976 629.44 485.086 638.52 488.976C632.324 485.307 627.253 480.008 623.86 473.656Z" fill="white"/>
<path id="Vector_25" opacity="0.2" d="M635.48 445.946C635.48 445.946 641.37 450.576 655.66 445.946Z" fill="black"/>
<path id="Vector_26" d="M634.22 412.306C634.22 412.306 644.31 439.636 643.47 446.786L651.47 445.946C651.47 445.946 638.01 421.946 641.38 412.306H634.22Z" fill="#6C63FF"/>
<path id="Vector_27" opacity="0.2" d="M634.22 412.306C634.22 412.306 644.31 439.636 643.47 446.786L651.47 445.946C651.47 445.946 638.01 421.946 641.38 412.306H634.22Z" fill="black"/>
<path id="Vector_28" d="M675.41 414.586C675.41 414.586 659.53 406.466 652.41 413.176C645.29 419.886 644.21 437.036 644.21 437.036C644.21 437.036 670.12 440.596 675.41 414.586Z" fill="#6C63FF"/>
<path id="Vector_29" opacity="0.1" d="M675.41 414.586C675.41 414.586 659.53 406.466 652.41 413.176C645.29 419.886 644.21 437.036 644.21 437.036C644.21 437.036 670.12 440.596 675.41 414.586Z" fill="white"/>
<path id="Vector_30" d="M644.22 437.036C644.22 437.036 648.39 417.126 675.41 414.586" stroke="#6C63FF" stroke-miterlimit="10"/>
<path id="Vector_31" d="M210.75 280.376C206.7 285.106 186.39 291.476 186.39 291.476C186.39 291.476 189.58 270.476 193.64 265.706C194.604 264.582 195.78 263.658 197.101 262.989C198.421 262.319 199.861 261.916 201.337 261.803C202.814 261.689 204.298 261.868 205.706 262.328C207.113 262.789 208.416 263.522 209.54 264.486C210.664 265.45 211.587 266.626 212.257 267.946C212.927 269.267 213.33 270.707 213.443 272.183C213.556 273.66 213.378 275.144 212.917 276.551C212.457 277.959 211.724 279.262 210.76 280.386L210.75 280.376Z" fill="#6C63FF"/>
<path id="Vector_32" opacity="0.5" d="M210.75 280.376C206.7 285.106 186.39 291.476 186.39 291.476C186.39 291.476 189.58 270.476 193.64 265.706C194.604 264.582 195.78 263.658 197.101 262.989C198.421 262.319 199.861 261.916 201.337 261.803C202.814 261.689 204.298 261.868 205.706 262.328C207.113 262.789 208.416 263.522 209.54 264.486C210.664 265.45 211.587 266.626 212.257 267.946C212.927 269.267 213.33 270.707 213.443 272.183C213.556 273.66 213.378 275.144 212.917 276.551C212.457 277.959 211.724 279.262 210.76 280.386L210.75 280.376Z" fill="white"/>
<path id="Vector_33" opacity="0.2" d="M381.5 588.066H301.96V543.256H381.5V588.066ZM305.32 584.706H378.12V546.616H305.32V584.706Z" fill="#6C63FF"/>
<path id="Vector_34" d="M249.02 520.886C254.02 523.806 259.29 524.996 264.74 523.186C266.156 522.709 267.525 522.103 268.83 521.376C319.83 522.456 367.06 521.956 368.89 516.466C371.89 507.366 352.89 462.546 343.3 440.886C346.121 438.968 348.506 436.477 350.3 433.576C363.62 448.806 388.4 468.456 403.13 469.436C403.13 469.436 424.63 520.506 448.82 512.436C473.01 504.366 475.7 461.366 463.6 455.996L382.97 404.926V320.186C385.42 315.328 386.581 309.921 386.34 304.486C386.34 303.486 386.39 302.486 386.34 301.486L383.65 277.296C383.65 277.296 383.51 276.496 383.14 275.046C377.14 251.736 363.77 236.046 344.92 233.716C345.838 232.039 346.396 230.19 346.56 228.286C346.95 223.766 345.07 219.156 346.13 214.746C347.37 209.606 352.13 206.286 356.04 202.746C364.39 195.106 369.65 184.746 374.73 174.636C379.57 165.006 384.48 155.126 385.73 144.426C386.98 133.726 383.73 121.846 374.98 115.546C368.18 110.636 358.61 109.346 353.72 102.546C351.53 99.4857 350.62 95.7157 349.11 92.2757C344.76 82.3657 335.38 75.3357 325.2 71.6657C289.48 58.8057 245.66 73.5657 222.87 103.226C215.43 112.906 210.06 123.986 204.75 134.976L185.55 174.666C182.24 181.496 179.04 190.026 183.46 196.196C185.62 199.196 189.32 201.056 190.82 204.446C192.82 208.946 190.32 214.836 193.26 218.796C194.88 220.986 197.69 221.856 200.1 223.136C203.336 224.978 206.153 227.474 208.37 230.466L166.21 263.136C163.164 265.496 160.63 268.452 158.763 271.824C156.896 275.195 155.734 278.911 155.35 282.746L151.18 324.306C149.853 329.026 149.22 333.913 149.3 338.816C149.15 343.196 149.66 348.026 151.85 351.816L152.77 351.596C153.77 380.746 155.51 422.686 157.23 430.436C158.23 435.036 164.54 443.146 173.04 451.506L170.04 460.006H171.04L170.04 462.676H172.04C163.56 493.316 140.49 516.406 140.49 516.406C140.49 516.406 193.84 519.306 249.02 520.886ZM198.88 379.306V346.636C203.8 347.396 207.43 349.096 208.59 352.196L198.88 379.306ZM213.12 237.126L213.28 237.366H213.22L213.12 237.126Z" fill="url(#paint0_linear)"/>
<path id="Vector_35" d="M334.43 311.306C334.43 311.306 336.98 401.926 339.54 413.416C342.1 424.906 379.12 459.406 398.25 460.686C398.25 460.686 418.67 509.186 441.65 501.526C464.63 493.866 467.18 453.026 455.65 447.916L379.12 399.416V302.416L334.43 311.306Z" fill="#FDB797"/>
<path id="Vector_36" d="M336.35 422.396C336.35 422.396 369.54 493.876 365.71 505.396C361.88 516.916 148.71 505.396 148.71 505.396C148.71 505.396 188.28 465.826 180.62 422.396H336.35Z" fill="#565171"/>
<path id="Vector_37" d="M310.82 210.516C310.82 210.516 305.71 260.296 314.65 271.786C323.59 283.276 278.91 289.646 275.12 289.646C271.33 289.646 230.45 275.646 222.79 271.776C215.13 267.906 208.79 239.866 208.79 239.866C208.79 239.866 247.08 247.526 258.57 202.866L310.82 210.516Z" fill="#FDB797"/>
<path id="Vector_38" d="M324.2 82.8257C333.87 86.3057 342.78 92.9857 346.91 102.396C348.35 105.666 349.21 109.246 351.29 112.156C355.93 118.636 365.02 119.856 371.48 124.526C379.77 130.526 382.84 141.796 381.69 151.956C380.54 162.116 375.87 171.506 371.28 180.646C366.45 190.256 361.46 200.086 353.53 207.346C349.83 210.736 345.29 213.886 344.11 218.766C343.11 222.956 344.89 227.326 344.51 231.626C343.59 242.236 330.91 247.176 320.32 248.356C315.72 248.866 310.45 248.896 307.21 245.586C305.55 243.886 304.72 241.586 303.66 239.446C301.251 234.572 297.538 230.461 292.935 227.569C288.332 224.677 283.017 223.116 277.581 223.06C272.144 223.004 266.799 224.455 262.137 227.252C257.475 230.049 253.679 234.083 251.17 238.906C248.69 243.686 247.24 249.476 242.72 252.396C235.8 256.866 226.55 251.616 221.46 245.156C216.37 238.696 212.66 230.576 205.39 226.706C203.1 225.486 200.39 224.706 198.9 222.586C196.11 218.826 198.48 213.236 196.59 208.956C195.16 205.736 191.65 203.956 189.59 201.116C185.39 195.256 188.43 187.116 191.59 180.666L209.83 142.966C214.83 132.526 219.98 121.966 227.04 112.806C248.65 84.6257 290.27 70.6057 324.2 82.8257Z" fill="#8F5A6A"/>
<path id="Vector_39" opacity="0.1" d="M277.64 280.716C277.64 280.716 227.86 280.716 215.1 234.766L173.2 267.236C170.308 269.48 167.903 272.289 166.131 275.492C164.359 278.694 163.256 282.224 162.89 285.866L158.89 325.396C158.89 325.396 154.42 340.076 159.53 349.006C159.53 349.006 212.53 335.606 213.78 350.916L176.8 454.306C176.8 454.306 234.24 455.586 249.55 445.376C249.55 445.376 312.09 458.136 327.41 444.096C342.73 430.056 358.04 431.336 345.28 399.426C345.28 399.426 370.81 373.896 359.28 338.156C347.75 302.416 358.64 338.796 358.64 338.796C358.64 338.796 383.53 326.666 382.25 303.696L379.7 280.696C379.7 280.696 379.56 279.936 379.21 278.566C371.43 248.286 350.52 231.566 321.13 242.226C312.54 245.336 303.76 241.776 303.76 241.776C303.76 241.776 313.37 283.306 277.64 280.716Z" fill="black"/>
<path id="Vector_40" d="M277.64 278.166C277.64 278.166 227.86 278.166 215.1 232.216L173.2 264.686C170.31 266.929 167.905 269.736 166.133 272.937C164.361 276.138 163.257 279.665 162.89 283.306L158.89 322.836C158.89 322.836 154.42 337.516 159.53 346.446C159.53 346.446 212.53 333.046 213.78 348.356L176.78 451.746C176.78 451.746 234.22 453.026 249.53 442.816C249.53 442.816 312.07 455.576 327.39 441.536C342.71 427.496 358.02 428.776 345.26 396.866C345.26 396.866 370.79 371.336 359.26 335.596C347.73 299.856 358.62 336.236 358.62 336.236C358.62 336.236 383.51 324.106 382.23 301.136L379.68 278.136C379.68 278.136 379.54 277.376 379.19 276.006C371.41 245.726 350.5 229.006 321.11 239.666C312.52 242.776 303.74 239.216 303.74 239.216C303.74 239.216 313.37 280.716 277.64 278.166Z" fill="#B45181"/>
<path id="Vector_41" d="M159.57 321.556C159.57 321.556 162.12 412.176 164.68 423.666C167.24 435.156 204.25 469.616 223.39 470.896C223.39 470.896 243.81 519.396 266.79 511.736C289.77 504.076 292.32 463.236 280.79 458.126L204.21 409.626V312.626L159.57 321.556Z" fill="#FDB797"/>
<path id="Vector_42" opacity="0.1" d="M214.45 324.746C214.45 324.746 185.12 344.666 159.57 343.006C159.57 343.006 157.02 308.796 164.68 306.886C172.34 304.976 205.52 306.886 214.45 324.746Z" fill="black"/>
<path id="Vector_43" d="M214.45 323.476C214.45 323.476 185.12 343.396 159.57 341.726C159.57 341.726 157.02 307.516 164.68 305.606C172.34 303.696 205.52 305.606 214.45 323.476Z" fill="#B45181"/>
<path id="Vector_44" opacity="0.1" d="M255.94 205.406L308.27 213.066C308.27 213.066 307.09 224.586 306.86 237.816C296.691 242.103 285.52 243.438 274.627 241.67C263.735 239.901 253.56 235.1 245.27 227.816C249.65 222.416 253.43 215.156 255.94 205.406Z" fill="black"/>
<path id="Vector_45" d="M286.57 239.866C318.995 239.866 345.28 213.58 345.28 181.156C345.28 148.731 318.995 122.446 286.57 122.446C254.145 122.446 227.86 148.731 227.86 181.156C227.86 213.58 254.145 239.866 286.57 239.866Z" fill="#FDB797"/>
<path id="Vector_46" opacity="0.1" d="M271.12 169.876C273.54 170.996 276.3 171.016 278.97 170.996C289.357 170.929 299.733 170.546 310.1 169.846C317.96 169.316 326.34 168.396 332.4 163.366C340.56 156.596 341.85 143.906 337.64 134.176C333.43 124.446 324.84 117.276 315.77 111.796C310.639 108.543 305.078 106.022 299.25 104.306C282.42 99.7357 263.81 105.306 250.44 116.556C237.07 127.806 228.55 143.936 224.04 160.786C222.48 166.616 220.48 173.556 214.71 175.326C218.55 181.716 227.92 182.726 234.66 179.526C244.58 174.806 249.66 156.746 258.57 153.906C268.48 150.776 262.7 166.016 271.12 169.876Z" fill="black"/>
<path id="Vector_47" d="M271.12 168.596C273.54 169.716 276.3 169.736 278.97 169.716C289.357 169.649 299.733 169.266 310.1 168.566C317.96 168.036 326.34 167.116 332.4 162.086C340.56 155.316 341.85 142.626 337.64 132.896C333.43 123.166 324.84 115.996 315.77 110.516C310.645 107.283 305.095 104.779 299.28 103.076C282.45 98.5057 263.84 104.076 250.47 115.326C237.1 126.576 228.58 142.706 224.07 159.556C222.51 165.386 220.51 172.326 214.74 174.096C218.58 180.486 227.95 181.496 234.69 178.296C244.61 173.576 249.69 155.516 258.6 152.676C268.48 149.506 262.7 164.736 271.12 168.596Z" fill="#8F5A6A"/>
<path id="Vector_48" opacity="0.1" d="M345.92 396.226C326.77 391.11 307.031 388.535 287.21 388.566Z" fill="black"/>
<path id="Vector_49" opacity="0.1" d="M214.45 327.306C214.45 327.306 233.6 341.306 228.45 349.006Z" fill="black"/>
<g id="Group" opacity="0.7">
<path id="Vector_50" opacity="0.7" d="M743.7 472.026H117V526.816H153.48V537.516V699.226H708.52V537.516V526.816H743.7V472.026Z" fill="url(#paint1_linear)"/>
</g>
<path id="Vector_51" d="M702.85 503.936H159.12V699.226H702.85V503.936Z" fill="#E0E0E0"/>
<path id="Vector_52" opacity="0.1" d="M702.85 514.146H159.12V544.776H702.85V514.146Z" fill="black"/>
<path id="Vector_53" d="M737.32 482.236H123.38V534.566H737.32V482.236Z" fill="#E0E0E0"/>
<path id="Vector_54" d="M350.31 469.356H245.88C242.29 469.356 239.38 472.266 239.38 475.856V479.446C239.38 483.036 242.29 485.946 245.88 485.946H350.31C353.9 485.946 356.81 483.036 356.81 479.446V475.856C356.81 472.266 353.9 469.356 350.31 469.356Z" fill="#535461"/>
<g id="Group_2" opacity="0.7">
<path id="Vector_55" opacity="0.7" d="M574.48 284.356H339.07C323.485 284.356 310.85 296.99 310.85 312.576V457.936C310.85 473.521 323.485 486.156 339.07 486.156H574.48C590.065 486.156 602.7 473.521 602.7 457.936V312.576C602.7 296.99 590.065 284.356 574.48 284.356Z" fill="url(#paint2_linear)"/>
</g>
<path id="Vector_56" d="M565.69 288.086H342.9C328.077 288.086 316.06 300.102 316.06 314.926V459.316C316.06 474.139 328.077 486.156 342.9 486.156H565.69C580.513 486.156 592.53 474.139 592.53 459.316V314.926C592.53 300.102 580.513 288.086 565.69 288.086Z" fill="#3E3F49"/>
<path id="Vector_57" d="M569.52 288.086H346.73C331.907 288.086 319.89 300.102 319.89 314.926V459.316C319.89 474.139 331.907 486.156 346.73 486.156H569.52C584.343 486.156 596.36 474.139 596.36 459.316V314.926C596.36 300.102 584.343 288.086 569.52 288.086Z" fill="#535461"/>
<path id="Vector_58" d="M471.04 394.686C475.972 394.686 479.97 390.688 479.97 385.756C479.97 380.824 475.972 376.826 471.04 376.826C466.108 376.826 462.11 380.824 462.11 385.756C462.11 390.688 466.108 394.686 471.04 394.686Z" fill="#E0E0E0"/>
</g>
<g id="blog">
<path id="Vector_59" d="M545 17V34.35V360.96H1049.92V34.35V17H545Z" fill="url(#paint3_linear)"/>
<path id="Vector_60" d="M1044.57 32.6H552.49V354.73H1044.57V32.6Z" fill="white"/>
<path id="Vector_61" d="M1044.57 17.28H552.49V40.98H1044.57V17.28Z" fill="#EEEEEE"/>
<path id="Vector_62" d="M571.21 34.52C574.386 34.52 576.96 31.9456 576.96 28.77C576.96 25.5944 574.386 23.02 571.21 23.02C568.034 23.02 565.46 25.5944 565.46 28.77C565.46 31.9456 568.034 34.52 571.21 34.52Z" fill="#FF5252"/>
<path id="Vector_63" d="M587.02 34.52C590.196 34.52 592.77 31.9456 592.77 28.77C592.77 25.5944 590.196 23.02 587.02 23.02C583.844 23.02 581.27 25.5944 581.27 28.77C581.27 31.9456 583.844 34.52 587.02 34.52Z" fill="#FFFF00"/>
<path id="Vector_64" d="M602.82 34.52C605.996 34.52 608.57 31.9456 608.57 28.77C608.57 25.5944 605.996 23.02 602.82 23.02C599.644 23.02 597.07 25.5944 597.07 28.77C597.07 31.9456 599.644 34.52 602.82 34.52Z" fill="#69F0AE"/>
<path id="Vector_65" opacity="0.5" d="M754.72 78.94H571.35V86.58H754.72V78.94Z" fill="#6C63FF"/>
<path id="Vector_66" opacity="0.5" d="M754.72 94.22H571.35V101.86H754.72V94.22Z" fill="#6C63FF"/>
<path id="Vector_67" opacity="0.5" d="M754.72 109.5H571.35V117.14H754.72V109.5Z" fill="#6C63FF"/>
<path id="Vector_68" opacity="0.5" d="M754.71 124.78H634.55V132.42H754.71V124.78Z" fill="#6C63FF"/>
<path id="Vector_69" opacity="0.5" d="M667.9 140.07H571.35V147.71H667.9V140.07Z" fill="#6C63FF"/>
<path id="Vector_70" opacity="0.5" d="M697.76 155.35H623.44V162.99H697.76V155.35Z" fill="#6C63FF"/>
<path id="Vector_71" opacity="0.5" d="M995.05 132.43H779.03V256.76H995.05V132.43Z" fill="#6C63FF"/>
<path id="Vector_72" d="M1020.75 144.23H804.73V268.56H1020.75V144.23Z" fill="#EEEEEE"/>
<path id="Vector_73" d="M925.59 268.53H804.73V245.79C834.26 231.99 879.69 224.24 925.59 268.53Z" fill="#6C63FF"/>
<g id="Group_3" opacity="0.1">
<path id="Vector_74" opacity="0.1" d="M1019.36 265.31V268.53H868.63V267.84C868.63 267.84 942.8 195.66 1019.36 265.31Z" fill="black"/>
</g>
<path id="Vector_75" d="M1020.75 265.31V268.53H870.02V267.84C870.02 267.84 944.19 195.66 1020.75 265.31Z" fill="#6C63FF"/>
<path id="Vector_76" d="M829.74 177.57C835.876 177.57 840.85 172.596 840.85 166.46C840.85 160.324 835.876 155.35 829.74 155.35C823.604 155.35 818.63 160.324 818.63 166.46C818.63 172.596 823.604 177.57 829.74 177.57Z" fill="#6C63FF"/>
<path id="Vector_77" d="M924.35 158.04C923.08 158.04 921.66 158.04 920.7 158.12C920.266 158.144 919.838 158.232 919.43 158.38L912.89 160.73C918.17 160.86 923.68 160.82 929.08 160.73L959.42 160.5C962.51 160.5 965.77 160.45 968.35 160.26C970.08 160.14 971.35 159.95 972.94 159.81C978.68 159.3 987.06 159.4 994.54 159.42C1002.02 159.44 1011.05 159.25 1013.68 158.5H997.63C995.9 158.5 994.08 158.5 992.55 158.41C990.76 158.31 989.67 158.11 988.1 157.97C985.5 157.75 981.92 157.72 978.58 157.71C960.3 157.7 942.23 158.14 924.35 158.04Z" fill="#F4F4F4"/>
<path id="Vector_78" d="M942.36 171.53C942.08 171.53 941.78 171.53 941.57 171.53C941.478 171.537 941.387 171.558 941.3 171.59L939.88 172.1C941.02 172.1 942.22 172.1 943.39 172.1L949.96 172.05C950.63 172.05 951.33 172.05 951.89 172L952.89 171.9C954.13 171.79 955.95 171.81 957.57 171.82C958.956 171.866 960.344 171.799 961.72 171.62H958.24C957.86 171.62 957.47 171.62 957.14 171.62C956.81 171.62 956.52 171.55 956.14 171.53C955.58 171.53 954.8 171.48 954.08 171.47C950.14 171.45 946.23 171.53 942.36 171.53Z" fill="#F4F4F4"/>
<path id="Vector_79" d="M895.82 190.97C895.54 190.97 895.24 190.97 895.03 190.97C894.938 190.977 894.847 190.998 894.76 191.03L893.34 191.54C894.48 191.54 895.68 191.54 896.85 191.54L903.42 191.49C904.09 191.49 904.79 191.49 905.35 191.44L906.35 191.34C907.59 191.23 909.41 191.25 911.03 191.26C912.416 191.306 913.804 191.239 915.18 191.06H911.7C911.32 191.06 910.93 191.06 910.6 191.06C910.27 191.06 909.98 190.99 909.6 190.97C909.04 190.97 908.26 190.92 907.54 190.91C903.61 190.9 899.69 190.99 895.82 190.97Z" fill="#F4F4F4"/>
<path id="Vector_80" d="M869.68 262.4H864.5C864.5 262.4 862.87 205.28 869.72 187.65H871.03C871.03 187.65 866.42 252.29 869.68 262.4Z" fill="#6C63FF"/>
<path id="Vector_81" d="M866.09 184.72C866.09 184.72 861.85 196.47 863.81 201.72C863.81 201.72 866.75 190.95 870.18 189.32C873.61 187.69 877.18 201.72 877.18 201.72C877.18 201.72 879.18 192.91 875.55 185.72C880.142 188.438 883.875 192.396 886.32 197.14C886.32 197.14 886.97 192.24 878.49 182.14C878.49 182.14 886 184.14 890.89 188.67C890.89 188.67 892.52 185.08 882.4 179.2C882.4 179.2 883.71 174.96 891.54 176.92C891.54 176.92 891.54 171.37 879.14 172.35C879.14 172.35 879.14 168.76 887.3 169.41C887.3 169.41 887.3 164.84 877.83 166.47C877.83 166.47 879.83 163.53 881.09 162.88C879.456 162.73 877.826 163.197 876.52 164.19C876.52 164.19 876.85 158.31 871.95 156.03L871.3 164.19C871.3 164.19 865.81 157.72 867.06 158.97C867.848 160.937 868.19 163.055 868.06 165.17C868.06 165.17 862.51 160.6 855.66 165.5C855.66 165.5 864.15 166.15 865.45 169.09C865.45 169.09 858.27 167.78 856.64 168.76C856.64 168.76 862.19 170.76 861.86 172.02C861.86 172.02 852.07 172.02 850.76 175.61C850.76 175.61 860.88 176.92 861.53 177.89C861.53 177.89 849.78 186.38 849.13 188.66C849.13 188.66 861.21 181.48 863.13 181.48C865.05 181.48 854.32 191.93 854.97 194.54C855 194.53 863.81 184.06 866.09 184.72Z" fill="#6C63FF"/>
<path id="Vector_82" d="M934.11 260.27H938.11C938.11 260.27 939.36 216.63 934.11 203.16H933.11C933.11 203.16 936.6 252.53 934.11 260.27Z" fill="#6C63FF"/>
<path id="Vector_83" d="M936.85 200.91C936.85 200.91 940.09 209.91 938.6 213.91C938.6 213.91 936.36 205.68 933.74 204.43C931.12 203.18 928.38 213.91 928.38 213.91C928.38 213.91 926.88 207.18 929.63 201.69C926.12 203.768 923.268 206.794 921.4 210.42C921.4 210.42 920.9 206.68 927.4 198.95C927.4 198.95 921.66 200.45 917.92 203.95C917.92 203.95 916.67 201.21 924.4 196.72C924.4 196.72 923.4 193.48 917.4 194.97C917.4 194.97 917.4 190.73 926.88 191.48C926.88 191.48 926.88 188.74 920.65 189.24C920.65 189.24 920.65 185.75 927.88 187C927.211 185.953 926.369 185.026 925.39 184.26C926.638 184.144 927.883 184.501 928.88 185.26C928.88 185.26 928.63 180.77 932.37 179.03L932.87 185.26C932.87 185.26 937.06 180.32 936.11 181.26C935.512 182.765 935.256 184.384 935.36 186C935.36 186 939.6 182.51 944.84 186.25C944.84 186.25 938.36 186.75 937.36 188.99C937.36 188.99 942.85 187.99 944.09 188.74C944.09 188.74 939.85 190.24 940.09 191.23C940.09 191.23 947.57 191.23 948.57 193.97C948.57 193.97 940.84 194.97 940.34 195.72C940.34 195.72 949.34 202.2 949.82 203.95C949.82 203.95 940.59 198.46 939.1 198.46C937.61 198.46 945.83 206.46 945.33 208.46C945.33 208.39 938.6 200.41 936.85 200.91Z" fill="#6C63FF"/>
<path id="Vector_84" d="M981.85 251.74H984.32C984.32 251.74 985.09 224.74 981.85 216.37H981.23C981.23 216.37 983.39 246.95 981.85 251.74Z" fill="#6C63FF"/>
<path id="Vector_85" d="M983.5 214.98C983.5 214.98 985.5 220.54 984.58 222.98C984.58 222.98 983.19 217.88 981.58 217.11C979.97 216.34 978.26 222.98 978.26 222.98C977.75 220.437 978.018 217.799 979.03 215.41C976.855 216.697 975.087 218.573 973.93 220.82C973.93 220.82 973.62 218.5 977.64 213.72C975.485 214.319 973.484 215.373 971.77 216.81C971.77 216.81 971 215.11 975.77 212.33C975.77 212.33 975.15 210.33 971.45 211.25C971.45 211.25 971.45 208.62 977.32 209.09C977.32 209.09 977.32 207.39 973.46 207.7C973.46 207.7 973.46 205.54 977.94 206.31C977.527 205.66 977.006 205.085 976.4 204.61C977.172 204.54 977.942 204.761 978.56 205.23C978.523 204.449 978.706 203.673 979.088 202.991C979.469 202.309 980.035 201.747 980.72 201.37L981.03 205.23C981.03 205.23 983.63 202.17 983.03 202.76C982.662 203.691 982.505 204.691 982.57 205.69C983.428 205.063 984.469 204.738 985.531 204.765C986.592 204.792 987.615 205.17 988.44 205.84C988.44 205.84 984.44 206.15 983.81 207.54C983.81 207.54 987.21 206.92 987.98 207.39C987.98 207.39 985.35 208.32 985.51 208.93C985.51 208.93 990.14 208.93 990.76 210.63C990.76 210.63 985.97 211.25 985.66 211.71C985.66 211.71 991.22 215.71 991.53 216.81C991.53 216.81 985.82 213.41 984.89 213.41C983.96 213.41 989.06 218.35 988.75 219.59C988.8 219.61 984.63 214.67 983.5 214.98Z" fill="#6C63FF"/>
<path id="Vector_86" d="M891.5 221.18L890.98 218.4C890.979 218.196 890.937 217.994 890.857 217.807C890.776 217.62 890.658 217.451 890.51 217.31L888.1 216.13C887.92 215.914 887.775 215.671 887.67 215.41V215.35C887.804 215.183 887.9 214.988 887.95 214.78C887.954 214.727 887.954 214.673 887.95 214.62V214.62C888.177 214.652 888.408 214.595 888.595 214.461C888.781 214.327 888.908 214.126 888.95 213.9V213.84C888.904 214.023 888.8 214.187 888.654 214.307C888.509 214.428 888.329 214.499 888.14 214.51C888.469 214.289 888.741 213.992 888.93 213.644C889.12 213.295 889.223 212.907 889.23 212.51C889.23 212.51 889.23 212.44 889.23 212.41C889.337 212.344 889.428 212.257 889.499 212.154C889.57 212.05 889.618 211.933 889.64 211.81V211.75C889.61 211.868 889.557 211.978 889.483 212.074C889.409 212.171 889.316 212.251 889.21 212.31C889.192 212.081 889.141 211.855 889.06 211.64H889.12C889.356 211.64 889.582 211.546 889.749 211.379C889.916 211.212 890.01 210.986 890.01 210.75C890.01 210.75 890.01 210.75 890.01 210.69C889.995 210.915 889.894 211.127 889.729 211.281C889.564 211.435 889.346 211.521 889.12 211.52H889.01C889.272 211.436 889.505 211.28 889.682 211.069C889.858 210.859 889.972 210.602 890.01 210.33C890.01 210.33 890.01 210.33 890.01 210.27C889.998 210.444 889.936 210.611 889.83 210.75C889.847 210.634 889.841 210.515 889.812 210.401C889.784 210.288 889.733 210.18 889.663 210.086C889.593 209.992 889.505 209.912 889.404 209.852C889.303 209.792 889.191 209.752 889.075 209.735C888.959 209.718 888.84 209.724 888.726 209.753C888.613 209.781 888.505 209.832 888.411 209.902C888.317 209.972 888.237 210.06 888.177 210.161C888.117 210.262 888.077 210.374 888.06 210.49L887.9 210.4C887.95 210.22 888.055 210.061 888.2 209.945C888.346 209.828 888.524 209.76 888.71 209.75H888.65C888.462 209.746 888.277 209.802 888.122 209.91C887.968 210.018 887.851 210.172 887.79 210.35C887.253 210.1 886.643 210.053 886.074 210.216C885.504 210.38 885.013 210.743 884.69 211.24C884.5 211.38 884.26 211.58 884.27 211.75C884.192 211.83 884.121 211.917 884.06 212.01C883.796 212.589 883.699 213.229 883.78 213.86C883.815 214.174 883.775 214.491 883.664 214.787C883.553 215.082 883.373 215.347 883.14 215.56C883.244 215.604 883.357 215.627 883.47 215.627C883.583 215.627 883.696 215.604 883.8 215.56C884.008 215.473 884.203 215.359 884.38 215.22C884.544 215.122 884.684 214.989 884.79 214.83V214.83C884.906 214.906 885.03 214.97 885.16 215.02C885.21 215.44 885.22 215.92 885.04 216.07V215.99C884.591 216.33 884.031 216.491 883.47 216.44C883.138 216.459 882.816 216.56 882.533 216.735C882.251 216.909 882.016 217.152 881.85 217.44L881.1 220.65V220.7V220.75C881.11 220.794 881.132 220.834 881.164 220.866C881.196 220.898 881.236 220.92 881.28 220.93L881.51 220.99C881.588 221.501 881.584 222.02 881.5 222.53C881.342 223.307 881.251 224.097 881.23 224.89C881.29 225.29 881.39 227.35 881.43 228.33C881.347 228.66 881.28 228.994 881.23 229.33L880.11 236.04C880.11 236.04 879.28 241.41 879.32 243.04L879.17 243.98C879.17 243.98 876.9 246.83 877.57 247.23C878.24 247.63 879.26 247.81 880.24 246.29C880.371 245.933 880.583 245.611 880.86 245.35C880.97 245.254 881.055 245.133 881.109 244.997C881.163 244.862 881.184 244.715 881.17 244.57L881.1 243.91H881.22H881.29C881.907 241.885 882.243 239.786 882.29 237.67C882.29 237.67 884.36 230.29 885.94 229.13L886.09 229.06L886.43 236.2L886.09 244.08L886.02 244.55C886.02 244.55 883.75 247.4 884.42 247.8C885.09 248.2 886.11 248.38 887.09 246.86C887.221 246.503 887.433 246.181 887.71 245.92C887.82 245.824 887.905 245.703 887.959 245.567C888.013 245.432 888.034 245.285 888.02 245.14L887.92 244.14C888.31 242.82 889.32 238.99 888.92 236.78L889.61 232.07C890.31 231.29 890.21 229.3 890.21 229.3C890.76 228.16 890.88 223.66 890.88 223.66L891.02 221.44H891.33H891.44L891.49 221.38V221.33L891.5 221.18ZM889.56 225.69C889.5 225.54 889.43 225.38 889.35 225.23H889.29V225.17V225.12V225.06C889.321 224.985 889.348 224.908 889.37 224.83C889.459 224.686 889.504 224.519 889.5 224.35C889.6 224.789 889.633 225.241 889.6 225.69H889.56ZM889.35 223.79L889.21 222.3V222.18L889.4 224.07L889.35 223.79ZM882.76 223.99C882.713 224.045 882.679 224.109 882.658 224.177C882.637 224.246 882.631 224.319 882.64 224.39C882.64 224.39 882.64 224.39 882.64 224.39C882.64 224.542 882.66 224.693 882.7 224.84L882.48 225.77V223.99C882.621 223.801 882.745 223.601 882.85 223.39C882.899 223.589 882.885 223.799 882.81 223.99H882.76Z" fill="url(#paint4_linear)"/>
<path id="Vector_87" d="M884.21 212.53C883.956 213.087 883.862 213.703 883.94 214.31C883.977 214.613 883.94 214.921 883.832 215.206C883.724 215.492 883.548 215.747 883.32 215.95C883.42 215.992 883.527 216.013 883.635 216.013C883.743 216.013 883.85 215.992 883.95 215.95C884.151 215.866 884.339 215.755 884.51 215.62C884.667 215.524 884.8 215.394 884.9 215.24C884.996 214.999 885.027 214.737 884.99 214.48C884.992 214.027 885.032 213.576 885.11 213.13C885.11 212.85 885.42 212.13 885.11 211.95C884.8 211.77 884.35 212.31 884.21 212.53Z" fill="#72351C"/>
<path id="Vector_88" d="M879.62 242.04L879.41 243.41C879.41 243.41 877.22 246.16 877.87 246.54C878.52 246.92 879.5 247.1 880.44 245.64C880.568 245.298 880.773 244.989 881.04 244.74V244.74C881.146 244.647 881.228 244.531 881.28 244.401C881.332 244.271 881.353 244.13 881.34 243.99L881.13 241.87L879.62 242.04Z" fill="#333333"/>
<path id="Vector_89" d="M886.21 242.59L886 243.96C886 243.96 883.81 246.71 884.46 247.09C885.11 247.47 886.09 247.65 887.03 246.19C887.158 245.848 887.363 245.54 887.63 245.29V245.29C887.736 245.198 887.818 245.081 887.87 244.951C887.922 244.821 887.943 244.68 887.93 244.54L887.72 242.42L886.21 242.59Z" fill="#333333"/>
<path id="Vector_90" d="M882.8 225.98C882.8 225.98 881.8 226.72 881.39 229.31L880.31 235.77C879.919 238.086 879.672 240.424 879.57 242.77L881.39 243.39C881.995 241.445 882.332 239.426 882.39 237.39C882.39 237.39 884.58 229.6 886.11 229.05L886.43 235.93L886.09 243.69L887.65 244C887.65 244 889.23 239.07 888.73 236.46L889.54 230.91C890.064 229.081 889.936 227.126 889.18 225.38L882.8 225.98Z" fill="#4D8AF0"/>
<g id="Group_4" opacity="0.1">
<path id="Vector_91" opacity="0.1" d="M885.93 229.15V229.03C884.4 229.58 882.21 237.37 882.21 237.37C882.172 239.384 881.855 241.383 881.27 243.31L881.47 243.38C882.075 241.435 882.412 239.416 882.47 237.38C882.47 237.38 884.41 230.27 885.93 229.15Z" fill="black"/>
<path id="Vector_92" opacity="0.1" d="M889.21 225.36H889C889.748 227.102 889.871 229.048 889.35 230.87L888.54 236.42C889.02 238.89 887.62 243.42 887.48 243.92H887.68C887.68 243.92 889.26 238.99 888.76 236.38L889.57 230.83C890.079 229.019 889.952 227.088 889.21 225.36Z" fill="black"/>
</g>
<path id="Vector_93" d="M881.4 220.92C881.399 220.973 881.416 221.025 881.449 221.067C881.482 221.109 881.528 221.138 881.58 221.15C882.082 221.269 882.553 221.494 882.96 221.81C883.73 222.41 882.15 220.61 882.15 220.61L881.62 220.73L881.4 220.92V220.92Z" fill="#F55F44"/>
<path id="Vector_94" opacity="0.1" d="M881.4 220.92C881.399 220.973 881.416 221.025 881.449 221.067C881.482 221.109 881.528 221.138 881.58 221.15C882.082 221.269 882.553 221.494 882.96 221.81C883.73 222.41 882.15 220.61 882.15 220.61L881.62 220.73L881.4 220.92V220.92Z" fill="black"/>
<path id="Vector_95" d="M888.92 222.53C889.562 222.07 890.307 221.775 891.09 221.67C891.143 221.67 891.194 221.649 891.231 221.611C891.269 221.574 891.29 221.523 891.29 221.47V221.47C891.067 221.368 890.824 221.315 890.578 221.314C890.333 221.313 890.09 221.364 889.866 221.465C889.641 221.565 889.441 221.712 889.278 221.896C889.115 222.079 888.993 222.295 888.92 222.53V222.53Z" fill="#F55F44"/>
<path id="Vector_96" opacity="0.1" d="M891.29 221.44C891.067 221.338 890.824 221.285 890.578 221.284C890.333 221.283 890.09 221.334 889.866 221.435C889.641 221.535 889.441 221.682 889.278 221.866C889.115 222.049 888.993 222.265 888.92 222.5C888.92 222.5 890.26 221.5 891.19 221.64" fill="black"/>
<path id="Vector_97" d="M886.81 215.44C888.119 215.44 889.18 214.379 889.18 213.07C889.18 211.761 888.119 210.7 886.81 210.7C885.501 210.7 884.44 211.761 884.44 213.07C884.44 214.379 885.501 215.44 886.81 215.44Z" fill="#72351C"/>
<path id="Vector_98" d="M885.17 214.73C885.17 214.73 885.51 216.12 885.17 216.41C884.83 216.7 884.17 217.22 884.67 217.63C885.17 218.04 886.99 218.73 887.59 218.4C888.19 218.07 888.88 218.16 888.72 217.47C888.56 216.78 887.24 216.92 887.21 213.47L885.17 214.73Z" fill="#FDB797"/>
<path id="Vector_99" opacity="0.1" d="M881.82 220.53C881.871 221.283 881.824 222.039 881.68 222.78C881.528 223.528 881.441 224.287 881.42 225.05C881.49 225.55 881.64 228.86 881.64 228.86C881.64 228.86 881.38 231.76 882.79 231.49C884.2 231.22 882.57 228.19 882.57 228.19L882.64 224.19C883.031 223.673 883.28 223.063 883.36 222.42C883.42 221.53 881.82 220.53 881.82 220.53Z" fill="black"/>
<path id="Vector_100" d="M881.79 220.53C881.841 221.283 881.794 222.039 881.65 222.78C881.498 223.528 881.411 224.287 881.39 225.05C881.46 225.55 881.61 228.86 881.61 228.86C881.61 228.86 881.35 231.76 882.76 231.49C884.17 231.22 882.54 228.19 882.54 228.19L882.61 224.19C883.001 223.673 883.25 223.063 883.33 222.42C883.4 221.53 881.79 220.53 881.79 220.53Z" fill="#FDB797"/>
<path id="Vector_101" opacity="0.1" d="M890.82 220.72L890.63 223.81C890.63 223.81 890.51 228.14 889.98 229.24C889.98 229.24 890.12 232.24 888.71 232.24C887.3 232.24 888.95 228.91 888.95 228.91C888.95 228.91 889.71 225.53 889.32 224.45L888.95 220.74L890.82 220.72Z" fill="black"/>
<path id="Vector_102" d="M890.84 220.72L890.65 223.81C890.65 223.81 890.53 228.14 890 229.24C890 229.24 890.14 232.24 888.73 232.24C887.32 232.24 888.97 228.91 888.97 228.91C888.97 228.91 889.73 225.53 889.34 224.45L888.97 220.74L890.84 220.72Z" fill="#FDB797"/>
<path id="Vector_103" opacity="0.1" d="M886.25 217.72C886.25 217.72 887.39 218.25 888.02 216.72L890.35 217.86C890.492 217.995 890.605 218.158 890.683 218.339C890.76 218.519 890.8 218.714 890.8 218.91L891.3 221.59C891.088 221.507 890.862 221.467 890.634 221.472C890.407 221.477 890.182 221.528 889.975 221.621C889.767 221.714 889.58 221.848 889.425 222.014C889.269 222.181 889.149 222.376 889.07 222.59L889.21 224.1C889.323 224.473 889.298 224.874 889.14 225.23C889.126 225.262 889.119 225.296 889.119 225.33C889.119 225.364 889.126 225.398 889.14 225.43C889.181 225.54 889.196 225.659 889.182 225.776C889.169 225.892 889.128 226.004 889.062 226.102C888.997 226.2 888.909 226.281 888.806 226.338C888.703 226.395 888.588 226.426 888.47 226.43C887.844 226.435 887.22 226.482 886.6 226.57C886.1 226.71 884.6 226.28 884.09 226.57C883.58 226.86 882.53 226.35 882.53 226.35L882.82 225.13C882.82 225.13 882.63 224.53 882.82 224.32C883.002 223.454 882.961 222.556 882.7 221.71C882.7 221.71 881.84 220.9 881.34 221.04L882.06 217.95C882.212 217.663 882.435 217.42 882.708 217.244C882.982 217.069 883.296 216.968 883.62 216.95C884.159 216.999 884.698 216.846 885.13 216.52C885.13 216.52 884.57 217.53 886.25 217.72Z" fill="black"/>
<path id="Vector_104" opacity="0.1" d="M886.37 217.67C886.68 217.75 887.52 217.85 888.02 216.59L890.35 217.73C890.492 217.865 890.605 218.028 890.683 218.209C890.76 218.389 890.8 218.584 890.8 218.78L891.3 221.46C891.088 221.377 890.862 221.337 890.634 221.342C890.407 221.347 890.182 221.398 889.975 221.491C889.767 221.584 889.58 221.718 889.425 221.884C889.269 222.051 889.149 222.246 889.07 222.46L889.21 223.97L889.3 224.27C889.341 224.397 889.352 224.532 889.331 224.664C889.31 224.796 889.258 224.922 889.18 225.03C889.154 225.072 889.141 225.121 889.141 225.17C889.141 225.219 889.154 225.268 889.18 225.31C889.221 225.42 889.236 225.539 889.222 225.656C889.209 225.772 889.168 225.884 889.102 225.982C889.037 226.08 888.949 226.161 888.846 226.218C888.743 226.275 888.628 226.306 888.51 226.31C887.884 226.315 887.26 226.362 886.64 226.45C886.14 226.59 884.64 226.16 884.13 226.45C883.62 226.74 882.57 226.23 882.57 226.23L882.86 225.01C882.86 225.01 882.67 224.41 882.86 224.2C883.042 223.334 883.001 222.436 882.74 221.59C882.74 221.59 881.88 220.78 881.38 220.92L882.1 217.83C882.251 217.543 882.475 217.3 882.748 217.124C883.022 216.949 883.336 216.848 883.66 216.83C884.199 216.879 884.738 216.726 885.17 216.4C885.17 216.4 884.61 217.4 886.09 217.65L886.37 217.67Z" fill="black"/>
<path id="Vector_105" d="M886.37 217.72C886.68 217.8 887.52 217.9 888.02 216.64L890.35 217.78C890.492 217.915 890.605 218.078 890.683 218.259C890.76 218.439 890.8 218.634 890.8 218.83L891.3 221.51C891.088 221.427 890.862 221.387 890.634 221.392C890.407 221.397 890.182 221.448 889.975 221.541C889.767 221.634 889.58 221.768 889.425 221.934C889.269 222.101 889.149 222.296 889.07 222.51L889.21 224.02C889.323 224.393 889.298 224.794 889.14 225.15C889.126 225.182 889.119 225.216 889.119 225.25C889.119 225.284 889.126 225.318 889.14 225.35C889.181 225.46 889.196 225.579 889.182 225.696C889.169 225.812 889.128 225.924 889.062 226.022C888.997 226.12 888.909 226.201 888.806 226.258C888.703 226.315 888.588 226.346 888.47 226.35C887.844 226.355 887.22 226.402 886.6 226.49C886.1 226.63 884.6 226.2 884.09 226.49C883.58 226.78 882.53 226.27 882.53 226.27L882.82 225.05C882.82 225.05 882.63 224.45 882.82 224.24C883.002 223.374 882.961 222.476 882.7 221.63C882.7 221.63 881.84 220.82 881.34 220.96L882.06 217.87C882.212 217.583 882.435 217.34 882.708 217.164C882.982 216.989 883.296 216.888 883.62 216.87C884.159 216.919 884.698 216.766 885.13 216.44C885.13 216.44 884.57 217.44 886.05 217.69L886.37 217.72Z" fill="#F55F44"/>
<path id="Vector_106" opacity="0.1" d="M887.25 213.58L885.25 214.85C885.301 215.068 885.341 215.288 885.37 215.51C885.602 215.602 885.85 215.649 886.1 215.65C886.598 215.617 887.068 215.404 887.42 215.05C887.318 214.566 887.261 214.074 887.25 213.58V213.58Z" fill="black"/>
<path id="Vector_107" d="M886.02 215.53C887.102 215.53 887.98 214.652 887.98 213.57C887.98 212.488 887.102 211.61 886.02 211.61C884.938 211.61 884.06 212.488 884.06 213.57C884.06 214.652 884.938 215.53 886.02 215.53Z" fill="#FDB797"/>
<path id="Vector_108" d="M888.92 212.06C889.395 212.06 889.78 211.675 889.78 211.2C889.78 210.725 889.395 210.34 888.92 210.34C888.445 210.34 888.06 210.725 888.06 211.2C888.06 211.675 888.445 212.06 888.92 212.06Z" fill="#72351C"/>
<path id="Vector_109" d="M889.08 212.11C888.862 212.111 888.652 212.028 888.492 211.88C888.332 211.731 888.235 211.528 888.22 211.31C888.22 211.31 888.22 211.31 888.22 211.37C888.22 211.598 888.311 211.817 888.472 211.978C888.633 212.139 888.852 212.23 889.08 212.23C889.308 212.23 889.527 212.139 889.688 211.978C889.849 211.817 889.94 211.598 889.94 211.37C889.94 211.37 889.94 211.37 889.94 211.31C889.925 211.528 889.828 211.731 889.668 211.88C889.508 212.028 889.298 212.111 889.08 212.11V212.11Z" fill="#72351C"/>
<path id="Vector_110" d="M888.59 212.97C888.376 212.931 888.185 212.812 888.055 212.638C887.925 212.463 887.866 212.246 887.89 212.03V212.09C887.849 212.315 887.899 212.548 888.029 212.736C888.16 212.925 888.36 213.054 888.585 213.095C888.81 213.136 889.043 213.086 889.231 212.956C889.42 212.825 889.549 212.625 889.59 212.4V212.34C889.535 212.553 889.401 212.737 889.215 212.854C889.029 212.971 888.806 213.013 888.59 212.97Z" fill="#72351C"/>
<path id="Vector_111" d="M887.92 215.03C887.706 214.991 887.515 214.872 887.385 214.698C887.255 214.523 887.196 214.306 887.22 214.09V214.15C887.179 214.375 887.229 214.608 887.359 214.796C887.49 214.985 887.69 215.114 887.915 215.155C888.14 215.196 888.373 215.146 888.561 215.016C888.75 214.885 888.879 214.685 888.92 214.46V214.4C888.865 214.613 888.731 214.797 888.545 214.914C888.359 215.031 888.136 215.073 887.92 215.03V215.03Z" fill="#72351C"/>
<path id="Vector_112" d="M889.08 211.66C888.862 211.661 888.652 211.578 888.492 211.43C888.332 211.281 888.235 211.078 888.22 210.86C888.22 210.86 888.22 210.86 888.22 210.92C888.22 211.148 888.311 211.367 888.472 211.528C888.633 211.689 888.852 211.78 889.08 211.78C889.308 211.78 889.527 211.689 889.688 211.528C889.849 211.367 889.94 211.148 889.94 210.92C889.94 210.92 889.94 210.92 889.94 210.86C889.925 211.078 889.828 211.281 889.668 211.43C889.508 211.578 889.298 211.661 889.08 211.66V211.66Z" fill="#72351C"/>
<path id="Vector_113" d="M887.88 211.19C887.882 210.972 887.967 210.763 888.117 210.605C888.268 210.447 888.472 210.353 888.69 210.34H888.63C888.402 210.34 888.183 210.431 888.022 210.592C887.861 210.753 887.77 210.972 887.77 211.2C887.77 211.428 887.861 211.647 888.022 211.808C888.183 211.969 888.402 212.06 888.63 212.06H888.69C888.469 212.047 888.261 211.95 888.11 211.787C887.96 211.625 887.877 211.411 887.88 211.19V211.19Z" fill="#72351C"/>
<path id="Vector_114" opacity="0.1" d="M888.75 219.32C888.84 219.745 888.84 220.185 888.75 220.61C888.75 220.61 888.63 221.74 888.82 221.93" fill="black"/>
<path id="Vector_115" opacity="0.1" d="M882.93 219.53C883.02 219.955 883.02 220.395 882.93 220.82C882.93 220.82 882.81 221.95 883 222.14" fill="black"/>
<path id="Vector_116" opacity="0.1" d="M882.88 224.2C883.064 224.265 883.266 224.265 883.45 224.2C883.675 224.132 883.915 224.132 884.14 224.2" fill="black"/>
<path id="Vector_117" opacity="0.1" d="M883.17 222.53C883.851 222.564 884.531 222.459 885.17 222.22C885.17 222.22 887.61 222.82 888.31 222.39" fill="black"/>
<path id="Vector_118" d="M882.49 232.82H881.82C881.588 232.82 881.4 233.008 881.4 233.24V233.33C881.4 233.562 881.588 233.75 881.82 233.75H882.49C882.722 233.75 882.91 233.562 882.91 233.33V233.24C882.91 233.008 882.722 232.82 882.49 232.82Z" fill="#FDB797"/>
<path id="Vector_119" d="M881.4 233.06H882.21L882.91 233.17H882.66L881.4 233.06Z" fill="#F0E4E4"/>
<path id="Vector_120" d="M886.83 229.18H887.64L888.34 229.25H888.09L886.83 229.18Z" fill="#F0E4E4"/>
<path id="Vector_121" d="M886.83 229.35H887.64L888.34 229.42H888.09L886.83 229.35Z" fill="#F0E4E4"/>
<path id="Vector_122" d="M886.83 229.53H887.64L888.34 229.6H888.09L886.83 229.53Z" fill="#F0E4E4"/>
<path id="Vector_123" d="M886.83 229.68H887.64L888.34 229.75H888.09L886.83 229.68Z" fill="#F0E4E4"/>
<path id="Vector_124" d="M881.4 233.72H882.21L882.91 233.8H882.66L881.4 233.72Z" fill="#F0E4E4"/>
<path id="Vector_125" d="M881.4 233.64H882.21L882.91 233.72H882.66L881.4 233.64Z" fill="#F0E4E4"/>
<path id="Vector_126" d="M881.4 233.53H882.21L882.91 233.61H882.66L881.4 233.53Z" fill="#F0E4E4"/>
<path id="Vector_127" d="M881.4 233.47H882.21L882.91 233.55H882.66L881.4 233.47Z" fill="#F0E4E4"/>
<path id="Vector_128" d="M881.4 232.95H882.21L882.91 233.06H882.66L881.4 232.95Z" fill="#F0E4E4"/>
<path id="Vector_129" d="M881.4 232.81H882.21L882.91 232.92H882.66L881.4 232.81Z" fill="#F0E4E4"/>
<path id="Vector_130" opacity="0.1" d="M886.35 212.31C886.272 213.041 886.364 213.781 886.62 214.47C886.743 214.803 886.796 215.158 886.775 215.512C886.754 215.867 886.661 216.213 886.5 216.53C886.606 216.556 886.717 216.556 886.823 216.53C886.93 216.504 887.028 216.452 887.11 216.38C887.281 216.229 887.429 216.054 887.55 215.86C887.678 215.702 887.771 215.518 887.82 215.32C887.84 215.01 887.792 214.7 887.68 214.41C887.546 213.877 887.449 213.336 887.39 212.79C887.39 212.46 887.39 211.5 887.02 211.41C886.65 211.32 886.42 212.03 886.35 212.31Z" fill="black"/>
<path id="Vector_131" d="M886.4 212.29C886.322 213.021 886.414 213.761 886.67 214.45C886.797 214.785 886.853 215.143 886.834 215.502C886.815 215.86 886.722 216.21 886.56 216.53C886.666 216.556 886.777 216.556 886.883 216.53C886.99 216.504 887.088 216.452 887.17 216.38C887.341 216.229 887.489 216.054 887.61 215.86C887.738 215.702 887.831 215.518 887.88 215.32C887.9 215.01 887.852 214.7 887.74 214.41C887.606 213.877 887.509 213.336 887.45 212.79C887.45 212.46 887.45 211.5 887.08 211.41C886.71 211.32 886.5 212.01 886.4 212.29Z" fill="#72351C"/>
<path id="Vector_132" opacity="0.1" d="M885.56 212.8C885.72 212.97 885.76 213.23 885.9 213.43C886.026 213.566 886.182 213.672 886.355 213.74C886.528 213.807 886.715 213.835 886.9 213.82C886.997 213.815 887.094 213.836 887.18 213.88C887.33 213.98 887.34 214.2 887.44 214.35C887.492 214.408 887.555 214.454 887.625 214.485C887.696 214.517 887.773 214.533 887.85 214.533C887.927 214.533 888.004 214.517 888.075 214.485C888.145 214.454 888.208 214.408 888.26 214.35C888.427 214.11 888.512 213.822 888.5 213.53C888.531 213.197 888.531 212.863 888.5 212.53C888.49 212.134 888.334 211.756 888.06 211.47C887.832 211.302 887.569 211.189 887.29 211.14C886.908 211.005 886.498 210.974 886.1 211.05C885.908 211.114 885.726 211.205 885.56 211.32L884.86 211.79C884.6 211.97 884.12 212.33 884.59 212.53C884.93 212.6 885.31 212.53 885.56 212.8Z" fill="black"/>
<path id="Vector_133" d="M885.61 212.78C885.77 212.95 885.81 213.21 885.95 213.41C886.076 213.546 886.232 213.652 886.405 213.72C886.578 213.787 886.765 213.815 886.95 213.8C887.047 213.795 887.144 213.816 887.23 213.86C887.38 213.96 887.39 214.18 887.49 214.33C887.542 214.388 887.605 214.434 887.675 214.465C887.746 214.497 887.823 214.513 887.9 214.513C887.977 214.513 888.054 214.497 888.125 214.465C888.195 214.434 888.258 214.388 888.31 214.33C888.511 214.089 888.621 213.784 888.62 213.47C888.651 213.137 888.651 212.803 888.62 212.47C888.61 212.074 888.454 211.696 888.18 211.41C887.952 211.242 887.689 211.129 887.41 211.08C887.028 210.945 886.618 210.914 886.22 210.99C886.028 211.054 885.846 211.145 885.68 211.26L884.98 211.73C884.72 211.91 884.24 212.27 884.71 212.47C884.98 212.53 885.35 212.53 885.61 212.78Z" fill="#72351C"/>
<path id="Vector_134" d="M886.88 229.18H887.69L888.39 229.25H888.14L886.88 229.18Z" fill="#F0E4E4"/>
<path id="Vector_135" d="M886.88 229.35H887.69L888.39 229.42H888.14L886.88 229.35Z" fill="#F0E4E4"/>
<path id="Vector_136" d="M886.88 229.53H887.69L888.39 229.6H888.14L886.88 229.53Z" fill="#F0E4E4"/>
<path id="Vector_137" d="M886.88 229.68H887.69L888.39 229.75H888.14L886.88 229.68Z" fill="#F0E4E4"/>
<path id="Vector_138" d="M886.5 238.91H887.31L888.01 238.98H887.76L886.5 238.91Z" fill="#F0E4E4"/>
<path id="Vector_139" d="M886.5 239.07H887.31L888.01 239.14H887.76L886.5 239.07Z" fill="#F0E4E4"/>
<path id="Vector_140" d="M886.5 239.24H887.31L888.01 239.31H887.76L886.5 239.24Z" fill="#F0E4E4"/>
<path id="Vector_141" d="M886.5 239.41H887.31L888.01 239.48H887.76L886.5 239.41Z" fill="#F0E4E4"/>
</g>
</g>
<defs>
<linearGradient id="paint0_linear" x1="-175159" y1="309824" x2="-175159" y2="100891" gradientUnits="userSpaceOnUse">
<stop stop-color="#808080" stop-opacity="0.25"/>
<stop offset="0.54" stop-color="#808080" stop-opacity="0.12"/>
<stop offset="1" stop-color="#808080" stop-opacity="0.1"/>
</linearGradient>
<linearGradient id="paint1_linear" x1="276636" y1="183557" x2="276636" y2="131939" gradientUnits="userSpaceOnUse">
<stop stop-color="#808080" stop-opacity="0.25"/>
<stop offset="0.54" stop-color="#808080" stop-opacity="0.12"/>
<stop offset="1" stop-color="#808080" stop-opacity="0.1"/>
</linearGradient>
<linearGradient id="paint2_linear" x1="136797" y1="119905" x2="136797" y2="79182.1" gradientUnits="userSpaceOnUse">
<stop stop-color="#808080" stop-opacity="0.25"/>
<stop offset="0.54" stop-color="#808080" stop-opacity="0.12"/>
<stop offset="1" stop-color="#808080" stop-opacity="0.1"/>
</linearGradient>
<linearGradient id="paint3_linear" x1="797.46" y1="360.96" x2="797.46" y2="16.99" gradientUnits="userSpaceOnUse">
<stop stop-color="#808080" stop-opacity="0.25"/>
<stop offset="0.54" stop-color="#808080" stop-opacity="0.12"/>
<stop offset="1" stop-color="#808080" stop-opacity="0.1"/>
</linearGradient>
<linearGradient id="paint4_linear" x1="13793.1" y1="11660" x2="13793.1" y2="10185.7" gradientUnits="userSpaceOnUse">
<stop stop-color="#808080" stop-opacity="0.25"/>
<stop offset="0.54" stop-color="#808080" stop-opacity="0.12"/>
<stop offset="1" stop-color="#808080" stop-opacity="0.1"/>
</linearGradient>
</defs>
</svg>
