<svg width="1300" height="1000" viewBox="0 0 1300 1000" fill="none" xmlns="http://www.w3.org/2000/svg">
<g id="Frame">
<g id="bg">
<path id="Vector" opacity="0.1" d="M185.455 606.042C221.105 651.372 207.255 717.582 184.605 770.622C177.015 788.382 168.445 807.162 171.605 826.202C175.515 849.482 196.295 866.512 218.115 875.532C257.885 891.982 305.485 888.062 342.035 865.322C373.615 845.672 396.235 813.722 428.355 794.972C482.115 763.592 550.535 775.442 608.905 797.062C650.205 812.352 695.355 832.242 736.385 816.262C765.255 805.012 785.215 777.642 796.095 748.622C801.345 734.622 805.155 719.452 815.185 708.342C821.185 701.742 828.925 697.052 836.895 693.102C909.665 657.022 1001.57 676.342 1072.25 636.332C1119.98 609.332 1150.54 558.332 1164.07 505.172C1177.6 452.012 1176.07 396.272 1172.59 341.532C1170.15 302.622 1165.77 261.092 1140.91 231.062C1114.61 199.302 1069.48 187.482 1028.69 193.522C987.895 199.562 950.915 221.082 918.385 246.422C877.735 278.102 840.025 317.542 790.115 330.422C756.115 339.162 720.365 334.422 685.305 332.722C626.695 329.952 568.065 336.112 509.775 342.842C453.975 349.292 397.775 356.392 344.615 374.542C307.005 387.342 276.865 410.662 241.345 426.912C218.195 437.532 192.945 440.462 171.015 453.992C144.015 470.652 119.255 499.632 126.175 533.542C132.755 565.812 166.535 581.982 185.455 606.042Z" fill="#6C63FF"/>
</g>
<g id="plants">
<path id="Vector_2" d="M350.36 484.606C346.31 489.336 326 495.706 326 495.706C326 495.706 329.19 474.706 333.25 469.936C334.214 468.812 335.39 467.889 336.711 467.219C338.031 466.549 339.471 466.146 340.947 466.033C342.424 465.92 343.908 466.098 345.316 466.559C346.723 467.019 348.026 467.752 349.15 468.716C350.274 469.68 351.197 470.856 351.867 472.177C352.537 473.497 352.94 474.937 353.053 476.413C353.166 477.89 352.988 479.374 352.527 480.782C352.067 482.189 351.334 483.492 350.37 484.616L350.36 484.606Z" fill="#6C63FF"/>
<path id="Vector_3" opacity="0.5" d="M350.36 484.606C346.31 489.336 326 495.706 326 495.706C326 495.706 329.19 474.706 333.25 469.936C334.214 468.812 335.39 467.889 336.711 467.219C338.031 466.549 339.471 466.146 340.947 466.033C342.424 465.92 343.908 466.098 345.316 466.559C346.723 467.019 348.026 467.752 349.15 468.716C350.274 469.68 351.197 470.856 351.867 472.177C352.537 473.497 352.94 474.937 353.053 476.413C353.166 477.89 352.988 479.374 352.527 480.782C352.067 482.189 351.334 483.492 350.37 484.616L350.36 484.606Z" fill="white"/>
<path id="Vector_4" d="M353.85 627.372C347.23 636.772 311 652.042 311 652.042C311 652.042 313.18 612.792 319.81 603.382C321.344 601.049 323.331 599.048 325.654 597.499C327.977 595.95 330.587 594.884 333.331 594.364C336.074 593.844 338.894 593.882 341.622 594.474C344.35 595.066 346.932 596.201 349.213 597.811C351.494 599.421 353.428 601.473 354.899 603.846C356.371 606.218 357.35 608.863 357.779 611.622C358.208 614.381 358.078 617.197 357.396 619.905C356.714 622.612 355.495 625.155 353.81 627.382L353.85 627.372Z" fill="#6C63FF"/>
<path id="Vector_5" d="M316.931 706.661C316.931 706.661 313.631 608.901 260.741 553.661C238.541 530.481 223.961 501.041 220.101 469.181C218.296 454.06 217.881 438.807 218.861 423.611" stroke="#535461" stroke-width="2" stroke-miterlimit="10"/>
<path id="Vector_6" d="M185.731 388.631C189.351 399.551 219.611 424.631 219.611 424.631C219.611 424.631 228.881 386.421 225.261 375.511C223.522 370.269 219.773 365.932 214.837 363.454C209.901 360.977 204.183 360.562 198.941 362.301C193.699 364.039 189.362 367.789 186.885 372.725C184.407 377.661 183.992 383.379 185.731 388.621V388.631Z" fill="#6C63FF"/>
<path id="Vector_7" d="M173.151 459.921C182.151 467.121 221.151 471.741 221.151 471.741C221.151 471.741 208.151 434.631 199.151 427.441C194.821 424.258 189.429 422.873 184.101 423.575C178.774 424.276 173.924 427.01 170.566 431.205C167.208 435.4 165.602 440.731 166.084 446.083C166.566 451.434 169.098 456.393 173.151 459.921V459.921Z" fill="#6C63FF"/>
<path id="Vector_8" d="M208.801 562.771C220.181 564.451 256.211 548.771 256.211 548.771C256.211 548.771 226.271 523.291 214.891 521.611C209.427 520.803 203.867 522.199 199.433 525.491C194.998 528.783 192.053 533.702 191.246 539.166C190.438 544.629 191.834 550.189 195.126 554.624C198.419 559.058 203.337 562.003 208.801 562.811V562.771Z" fill="#6C63FF"/>
<path id="Vector_9" d="M253.321 634.511C264.251 638.091 302.421 628.691 302.421 628.691C302.421 628.691 277.211 598.521 266.281 594.941C261.034 593.217 255.316 593.648 250.387 596.139C245.458 598.631 241.72 602.978 239.996 608.226C238.272 613.473 238.703 619.19 241.195 624.119C243.686 629.049 248.034 632.787 253.281 634.511H253.321Z" fill="#6C63FF"/>
<path id="Vector_10" d="M263.321 460.091C258.011 470.291 224.151 490.271 224.151 490.271C224.151 490.271 221.071 451.081 226.381 440.871C227.643 438.445 229.37 436.292 231.464 434.534C233.558 432.776 235.978 431.448 238.586 430.625C241.193 429.802 243.937 429.501 246.661 429.739C249.385 429.977 252.035 430.749 254.461 432.011C256.886 433.273 259.04 435 260.797 437.094C262.555 439.188 263.884 441.608 264.706 444.216C265.529 446.823 265.83 449.567 265.592 452.291C265.355 455.015 264.583 457.665 263.321 460.091Z" fill="#6C63FF"/>
<path id="Vector_11" d="M314.331 544.651C306.211 552.801 267.931 561.721 267.931 561.721C267.931 561.721 276.721 523.401 284.831 515.251C286.761 513.314 289.053 511.776 291.577 510.725C294.101 509.673 296.808 509.13 299.542 509.125C302.276 509.12 304.985 509.653 307.513 510.695C310.041 511.736 312.339 513.266 314.276 515.196C316.213 517.125 317.751 519.418 318.802 521.942C319.853 524.466 320.397 527.172 320.402 529.907C320.407 532.641 319.873 535.349 318.832 537.877C317.79 540.405 316.261 542.704 314.331 544.641V544.651Z" fill="#6C63FF"/>
<path id="Vector_12" d="M325.781 518.961C325.781 518.961 329.021 466.101 303.351 433.621C292.496 420.067 286.33 403.357 285.781 386.001C285.587 377.756 286.15 369.512 287.461 361.371" stroke="#535461" stroke-width="2" stroke-miterlimit="10"/>
<path id="Vector_13" d="M271.411 340.811C272.801 346.881 287.821 361.961 287.821 361.961C287.821 361.961 294.821 341.841 293.391 335.781C293.063 334.336 292.453 332.97 291.597 331.761C290.741 330.552 289.655 329.524 288.401 328.735C287.148 327.945 285.751 327.411 284.291 327.161C282.83 326.912 281.335 326.952 279.891 327.281C278.446 327.609 277.081 328.218 275.872 329.075C274.663 329.931 273.634 331.017 272.845 332.27C272.056 333.524 271.521 334.92 271.271 336.381C271.022 337.841 271.063 339.336 271.391 340.781L271.411 340.811Z" fill="#6C63FF"/>
<path id="Vector_14" d="M260.951 378.591C265.421 382.931 286.221 387.431 286.221 387.431C286.221 387.431 281.131 366.761 276.661 362.431C275.599 361.399 274.345 360.587 272.969 360.04C271.593 359.493 270.123 359.223 268.643 359.244C267.163 359.266 265.702 359.578 264.342 360.165C262.983 360.751 261.752 361.599 260.721 362.661C259.689 363.722 258.877 364.977 258.33 366.352C257.784 367.728 257.513 369.198 257.535 370.678C257.556 372.158 257.869 373.62 258.455 374.979C259.041 376.338 259.889 377.569 260.951 378.601V378.591Z" fill="#6C63FF"/>
<path id="Vector_15" d="M274.901 435.861C280.901 437.351 301.171 430.731 301.171 430.731C301.171 430.731 286.341 415.461 280.301 413.971C278.864 413.616 277.371 413.548 275.907 413.77C274.443 413.993 273.038 414.501 271.771 415.267C269.212 416.813 267.372 419.313 266.656 422.216C265.94 425.118 266.406 428.187 267.952 430.746C269.499 433.305 271.998 435.144 274.901 435.861V435.861Z" fill="#6C63FF"/>
<path id="Vector_16" d="M295.211 476.801C300.921 479.291 321.971 476.181 321.971 476.181C321.971 476.181 309.971 458.621 304.231 456.181C302.869 455.553 301.395 455.205 299.896 455.154C298.398 455.104 296.904 455.353 295.503 455.887C294.102 456.421 292.821 457.23 291.736 458.265C290.652 459.301 289.784 460.542 289.186 461.917C288.587 463.292 288.268 464.772 288.249 466.271C288.229 467.771 288.509 469.259 289.072 470.649C289.635 472.039 290.47 473.302 291.527 474.366C292.585 475.429 293.844 476.27 295.231 476.841L295.211 476.801Z" fill="#6C63FF"/>
<path id="Vector_17" d="M309.561 383.321C306.181 388.551 286.901 397.571 286.901 397.571C286.901 397.571 287.251 376.291 290.641 371.061C292.267 368.552 294.823 366.791 297.746 366.167C300.67 365.542 303.722 366.105 306.231 367.731C308.74 369.356 310.5 371.912 311.125 374.836C311.749 377.76 311.187 380.812 309.561 383.321V383.321Z" fill="#6C63FF"/>
<path id="Vector_18" d="M332.711 431.511C327.921 435.511 306.821 438.331 306.821 438.331C306.821 438.331 313.521 418.131 318.321 414.151C320.623 412.242 323.589 411.327 326.566 411.605C329.543 411.884 332.288 413.333 334.196 415.636C336.104 417.938 337.02 420.903 336.741 423.881C336.463 426.858 335.013 429.602 332.711 431.511Z" fill="#6C63FF"/>
<path id="Vector_19" opacity="0.5" d="M271.411 340.811C272.801 346.881 287.821 361.961 287.821 361.961C287.821 361.961 294.821 341.841 293.391 335.781C293.063 334.336 292.453 332.97 291.597 331.761C290.741 330.552 289.655 329.524 288.401 328.735C287.148 327.945 285.751 327.411 284.291 327.161C282.83 326.912 281.335 326.952 279.891 327.281C278.446 327.609 277.081 328.218 275.872 329.075C274.663 329.931 273.634 331.017 272.845 332.27C272.056 333.524 271.521 334.92 271.271 336.381C271.022 337.841 271.063 339.336 271.391 340.781L271.411 340.811Z" fill="white"/>
<path id="Vector_20" opacity="0.5" d="M260.951 378.591C265.421 382.931 286.221 387.431 286.221 387.431C286.221 387.431 281.131 366.761 276.661 362.431C275.599 361.399 274.345 360.587 272.969 360.04C271.593 359.493 270.123 359.223 268.643 359.244C267.163 359.266 265.702 359.578 264.342 360.165C262.983 360.751 261.752 361.599 260.721 362.661C259.689 363.722 258.877 364.977 258.33 366.352C257.784 367.728 257.513 369.198 257.535 370.678C257.556 372.158 257.869 373.62 258.455 374.979C259.041 376.338 259.889 377.569 260.951 378.601V378.591Z" fill="white"/>
<path id="Vector_21" opacity="0.5" d="M274.901 435.861C280.901 437.351 301.171 430.731 301.171 430.731C301.171 430.731 286.341 415.461 280.301 413.971C278.864 413.616 277.371 413.548 275.907 413.77C274.443 413.993 273.038 414.501 271.771 415.267C269.212 416.813 267.372 419.313 266.656 422.216C265.94 425.118 266.406 428.187 267.952 430.746C269.499 433.305 271.998 435.144 274.901 435.861V435.861Z" fill="white"/>
<path id="Vector_22" opacity="0.5" d="M295.211 476.801C300.921 479.291 321.971 476.181 321.971 476.181C321.971 476.181 309.971 458.621 304.231 456.181C302.869 455.553 301.395 455.205 299.896 455.154C298.398 455.104 296.904 455.353 295.503 455.887C294.102 456.421 292.821 457.23 291.736 458.265C290.652 459.301 289.784 460.542 289.186 461.917C288.587 463.292 288.268 464.772 288.249 466.271C288.229 467.771 288.509 469.259 289.072 470.649C289.635 472.039 290.47 473.302 291.527 474.366C292.585 475.429 293.844 476.27 295.231 476.841L295.211 476.801Z" fill="white"/>
<path id="Vector_23" opacity="0.5" d="M309.561 383.321C306.181 388.551 286.901 397.571 286.901 397.571C286.901 397.571 287.251 376.291 290.641 371.061C292.267 368.552 294.823 366.791 297.746 366.167C300.67 365.542 303.722 366.105 306.231 367.731C308.74 369.356 310.5 371.912 311.125 374.836C311.749 377.76 311.187 380.812 309.561 383.321V383.321Z" fill="white"/>
<path id="Vector_24" opacity="0.5" d="M332.711 431.511C327.921 435.511 306.821 438.331 306.821 438.331C306.821 438.331 313.521 418.131 318.321 414.151C320.623 412.242 323.589 411.327 326.566 411.605C329.543 411.884 332.288 413.333 334.196 415.636C336.104 417.938 337.02 420.903 336.741 423.881C336.463 426.858 335.013 429.602 332.711 431.511Z" fill="white"/>
</g>
<g id="person">
<path id="Vector_25" d="M772.68 532.216C772.68 532.216 756.8 526.836 749.16 540.826C747.144 544.619 746.119 548.859 746.178 553.154C746.238 557.449 747.38 561.66 749.5 565.396C754.5 574.466 764.86 586.246 784.5 585.196C801.12 584.306 806.6 571.626 808.12 559.826C808.695 555.402 808.125 550.904 806.464 546.763C804.802 542.623 802.106 538.978 798.633 536.178C795.159 533.378 791.025 531.517 786.626 530.772C782.228 530.028 777.711 530.425 773.51 531.926L772.68 532.216Z" fill="#6C63FF"/>
<path id="Vector_26" opacity="0.1" d="M752.86 566.656C750.74 562.92 749.598 558.709 749.538 554.414C749.479 550.119 750.504 545.879 752.52 542.086C760.16 528.086 776.04 533.476 776.04 533.476L776.85 533.186C782.905 530.995 789.56 531.145 795.51 533.606C792.226 531.651 788.55 530.448 784.746 530.085C780.942 529.722 777.104 530.207 773.51 531.506L772.7 531.796C772.7 531.796 756.82 526.416 749.18 540.406C747.164 544.199 746.139 548.439 746.198 552.734C746.258 557.029 747.4 561.24 749.52 564.976C752.83 570.976 758.44 578.086 767.52 581.976C761.324 578.307 756.253 573.008 752.86 566.656Z" fill="white"/>
<path id="Vector_27" opacity="0.2" d="M764.48 538.946C764.48 538.946 770.37 543.576 784.66 538.946Z" fill="black"/>
<path id="Vector_28" d="M763.22 505.306C763.22 505.306 773.31 532.636 772.47 539.786L780.47 538.946C780.47 538.946 767.01 514.946 770.38 505.306H763.22Z" fill="#6C63FF"/>
<path id="Vector_29" opacity="0.2" d="M763.22 505.306C763.22 505.306 773.31 532.636 772.47 539.786L780.47 538.946C780.47 538.946 767.01 514.946 770.38 505.306H763.22Z" fill="black"/>
<path id="Vector_30" d="M804.41 507.586C804.41 507.586 788.53 499.466 781.41 506.176C774.29 512.886 773.21 530.036 773.21 530.036C773.21 530.036 799.12 533.596 804.41 507.586Z" fill="#6C63FF"/>
<path id="Vector_31" opacity="0.1" d="M804.41 507.586C804.41 507.586 788.53 499.466 781.41 506.176C774.29 512.886 773.21 530.036 773.21 530.036C773.21 530.036 799.12 533.596 804.41 507.586Z" fill="white"/>
<path id="Vector_32" d="M773.22 530.036C773.22 530.036 777.39 510.126 804.41 507.586" stroke="#6C63FF" stroke-miterlimit="10"/>
<path id="Vector_33" opacity="0.2" d="M510.5 681.066H430.96V636.256H510.5V681.066ZM434.32 677.706H507.12V639.616H434.32V677.706Z" fill="#6C63FF"/>
<path id="Vector_34" d="M378.02 613.886C383.02 616.806 388.29 617.996 393.74 616.186C395.156 615.709 396.525 615.103 397.83 614.376C448.83 615.456 496.06 614.956 497.89 609.466C500.89 600.366 481.89 555.546 472.3 533.886C475.121 531.968 477.506 529.477 479.3 526.576C492.62 541.806 517.4 561.456 532.13 562.436C532.13 562.436 553.63 613.506 577.82 605.436C602.01 597.366 604.7 554.366 592.6 548.996L511.97 497.926V413.186C514.42 408.328 515.581 402.921 515.34 397.486C515.34 396.486 515.39 395.486 515.34 394.486L512.65 370.296C512.65 370.296 512.51 369.496 512.14 368.046C506.14 344.736 492.77 329.046 473.92 326.716C474.838 325.039 475.396 323.19 475.56 321.286C475.95 316.766 474.07 312.156 475.13 307.746C476.37 302.606 481.13 299.286 485.04 295.746C493.39 288.106 498.65 277.746 503.73 267.636C508.57 258.006 513.48 248.126 514.73 237.426C515.98 226.726 512.73 214.846 503.98 208.546C497.18 203.636 487.61 202.346 482.72 195.546C480.53 192.486 479.62 188.716 478.11 185.276C473.76 175.366 464.38 168.336 454.2 164.666C418.48 151.806 374.66 166.566 351.87 196.226C344.43 205.906 339.06 216.986 333.75 227.976L314.55 267.666C311.24 274.496 308.04 283.026 312.46 289.196C314.62 292.196 318.32 294.056 319.82 297.446C321.82 301.946 319.32 307.836 322.26 311.796C323.88 313.986 326.69 314.856 329.1 316.136C332.336 317.978 335.153 320.474 337.37 323.466L295.21 356.136C292.164 358.496 289.63 361.452 287.763 364.824C285.896 368.195 284.734 371.911 284.35 375.746L280.18 417.306C278.853 422.026 278.22 426.913 278.3 431.816C278.15 436.196 278.66 441.026 280.85 444.816L281.77 444.596C282.77 473.746 284.51 515.686 286.23 523.436C287.23 528.036 293.54 536.146 302.04 544.506L299.04 553.006H300.04L299.04 555.676H301.04C292.56 586.316 269.49 609.406 269.49 609.406C269.49 609.406 322.84 612.306 378.02 613.886ZM327.88 472.306V439.636C332.8 440.396 336.43 442.096 337.59 445.196L327.88 472.306ZM342.12 330.126L342.28 330.366H342.22L342.12 330.126Z" fill="url(#paint0_linear)"/>
<path id="Vector_35" d="M463.43 404.306C463.43 404.306 465.98 494.926 468.54 506.416C471.1 517.906 508.12 552.406 527.25 553.686C527.25 553.686 547.67 602.186 570.65 594.526C593.63 586.866 596.18 546.026 584.65 540.916L508.12 492.416V395.416L463.43 404.306Z" fill="#FDB797"/>
<path id="Vector_36" d="M465.35 515.396C465.35 515.396 498.54 586.876 494.71 598.396C490.88 609.916 277.71 598.396 277.71 598.396C277.71 598.396 317.28 558.826 309.62 515.396H465.35Z" fill="#565171"/>
<path id="Vector_37" d="M439.82 303.516C439.82 303.516 434.71 353.296 443.65 364.786C452.59 376.276 407.91 382.646 404.12 382.646C400.33 382.646 359.45 368.646 351.79 364.776C344.13 360.906 337.79 332.866 337.79 332.866C337.79 332.866 376.08 340.526 387.57 295.866L439.82 303.516Z" fill="#FDB797"/>
<path id="Vector_38" d="M453.2 175.826C462.87 179.306 471.78 185.986 475.91 195.396C477.35 198.666 478.21 202.246 480.29 205.156C484.93 211.636 494.02 212.856 500.48 217.526C508.77 223.526 511.84 234.796 510.69 244.956C509.54 255.116 504.87 264.506 500.28 273.646C495.45 283.256 490.46 293.086 482.53 300.346C478.83 303.736 474.29 306.886 473.11 311.766C472.11 315.956 473.89 320.326 473.51 324.626C472.59 335.236 459.91 340.176 449.32 341.356C444.72 341.866 439.45 341.896 436.21 338.586C434.55 336.886 433.72 334.586 432.66 332.446C430.251 327.572 426.538 323.461 421.935 320.569C417.332 317.677 412.017 316.116 406.581 316.06C401.144 316.004 395.799 317.455 391.137 320.252C386.475 323.049 382.679 327.083 380.17 331.906C377.69 336.686 376.24 342.476 371.72 345.396C364.8 349.866 355.55 344.616 350.46 338.156C345.37 331.696 341.66 323.576 334.39 319.706C332.1 318.486 329.39 317.706 327.9 315.586C325.11 311.826 327.48 306.236 325.59 301.956C324.16 298.736 320.65 296.956 318.59 294.116C314.39 288.256 317.43 280.116 320.59 273.666L338.83 235.966C343.83 225.526 348.98 214.966 356.04 205.806C377.65 177.626 419.27 163.606 453.2 175.826Z" fill="#8F5A6A"/>
<path id="Vector_39" opacity="0.1" d="M406.64 373.716C406.64 373.716 356.86 373.716 344.1 327.766L302.2 360.236C299.308 362.48 296.903 365.289 295.131 368.492C293.359 371.694 292.256 375.224 291.89 378.866L287.89 418.396C287.89 418.396 283.42 433.076 288.53 442.006C288.53 442.006 341.53 428.606 342.78 443.916L305.8 547.306C305.8 547.306 363.24 548.586 378.55 538.376C378.55 538.376 441.09 551.136 456.41 537.096C471.73 523.056 487.04 524.336 474.28 492.426C474.28 492.426 499.81 466.896 488.28 431.156C476.75 395.416 487.64 431.796 487.64 431.796C487.64 431.796 512.53 419.666 511.25 396.696L508.7 373.696C508.7 373.696 508.56 372.936 508.21 371.566C500.43 341.286 479.52 324.566 450.13 335.226C441.54 338.336 432.76 334.776 432.76 334.776C432.76 334.776 442.37 376.306 406.64 373.716Z" fill="black"/>
<path id="Vector_40" d="M406.64 371.166C406.64 371.166 356.86 371.166 344.1 325.216L302.2 357.686C299.31 359.929 296.905 362.736 295.133 365.937C293.361 369.138 292.257 372.665 291.89 376.306L287.89 415.836C287.89 415.836 283.42 430.516 288.53 439.446C288.53 439.446 341.53 426.046 342.78 441.356L305.78 544.746C305.78 544.746 363.22 546.026 378.53 535.816C378.53 535.816 441.07 548.576 456.39 534.536C471.71 520.496 487.02 521.776 474.26 489.866C474.26 489.866 499.79 464.336 488.26 428.596C476.73 392.856 487.62 429.236 487.62 429.236C487.62 429.236 512.51 417.106 511.23 394.136L508.68 371.136C508.68 371.136 508.54 370.376 508.19 369.006C500.41 338.726 479.5 322.006 450.11 332.666C441.52 335.776 432.74 332.216 432.74 332.216C432.74 332.216 442.37 373.716 406.64 371.166Z" fill="#B45181"/>
<path id="Vector_41" d="M288.57 414.556C288.57 414.556 291.12 505.176 293.68 516.666C296.24 528.156 333.25 562.616 352.39 563.896C352.39 563.896 372.81 612.396 395.79 604.736C418.77 597.076 421.32 556.236 409.79 551.126L333.21 502.626V405.626L288.57 414.556Z" fill="#FDB797"/>
<path id="Vector_42" opacity="0.1" d="M343.45 417.746C343.45 417.746 314.12 437.666 288.57 436.006C288.57 436.006 286.02 401.796 293.68 399.886C301.34 397.976 334.52 399.886 343.45 417.746Z" fill="black"/>
<path id="Vector_43" d="M343.45 416.476C343.45 416.476 314.12 436.396 288.57 434.726C288.57 434.726 286.02 400.516 293.68 398.606C301.34 396.696 334.52 398.606 343.45 416.476Z" fill="#B45181"/>
<path id="Vector_44" opacity="0.1" d="M384.94 298.406L437.27 306.066C437.27 306.066 436.09 317.586 435.86 330.816C425.691 335.103 414.52 336.438 403.627 334.67C392.735 332.901 382.56 328.1 374.27 320.816C378.65 315.416 382.43 308.156 384.94 298.406Z" fill="black"/>
<path id="Vector_45" d="M415.57 332.866C447.995 332.866 474.28 306.58 474.28 274.156C474.28 241.731 447.995 215.446 415.57 215.446C383.145 215.446 356.86 241.731 356.86 274.156C356.86 306.58 383.145 332.866 415.57 332.866Z" fill="#FDB797"/>
<path id="Vector_46" opacity="0.1" d="M400.12 262.876C402.54 263.996 405.3 264.016 407.97 263.996C418.357 263.929 428.733 263.546 439.1 262.846C446.96 262.316 455.34 261.396 461.4 256.366C469.56 249.596 470.85 236.906 466.64 227.176C462.43 217.446 453.84 210.276 444.77 204.796C439.639 201.543 434.078 199.022 428.25 197.306C411.42 192.736 392.81 198.306 379.44 209.556C366.07 220.806 357.55 236.936 353.04 253.786C351.48 259.616 349.48 266.556 343.71 268.326C347.55 274.716 356.92 275.726 363.66 272.526C373.58 267.806 378.66 249.746 387.57 246.906C397.48 243.776 391.7 259.016 400.12 262.876Z" fill="black"/>
<path id="Vector_47" d="M400.12 261.596C402.54 262.716 405.3 262.736 407.97 262.716C418.357 262.649 428.733 262.266 439.1 261.566C446.96 261.036 455.34 260.116 461.4 255.086C469.56 248.316 470.85 235.626 466.64 225.896C462.43 216.166 453.84 208.996 444.77 203.516C439.645 200.283 434.095 197.778 428.28 196.076C411.45 191.506 392.84 197.076 379.47 208.326C366.1 219.576 357.58 235.706 353.07 252.556C351.51 258.386 349.51 265.326 343.74 267.096C347.58 273.486 356.95 274.496 363.69 271.296C373.61 266.576 378.69 248.516 387.6 245.676C397.48 242.506 391.7 257.736 400.12 261.596Z" fill="#8F5A6A"/>
<path id="Vector_48" opacity="0.1" d="M474.92 489.226C455.77 484.11 436.031 481.535 416.21 481.566Z" fill="black"/>
<path id="Vector_49" opacity="0.1" d="M343.45 420.306C343.45 420.306 362.6 434.306 357.45 442.006Z" fill="black"/>
<path id="Vector_50" opacity="0.7" d="M872.7 565.026H246V619.816H282.48V792.226H837.52V619.816H872.7V565.026Z" fill="url(#paint1_linear)"/>
<path id="Vector_51" d="M831.85 596.936H288.12V792.226H831.85V596.936Z" fill="#E0E0E0"/>
<path id="Vector_52" opacity="0.1" d="M831.85 607.146H288.12V637.776H831.85V607.146Z" fill="black"/>
<path id="Vector_53" d="M866.32 575.236H252.38V627.566H866.32V575.236Z" fill="#E0E0E0"/>
<path id="Vector_54" d="M479.31 562.356H374.88C371.29 562.356 368.38 565.266 368.38 568.856V572.446C368.38 576.036 371.29 578.946 374.88 578.946H479.31C482.9 578.946 485.81 576.036 485.81 572.446V568.856C485.81 565.266 482.9 562.356 479.31 562.356Z" fill="#535461"/>
<path id="Vector_55" opacity="0.7" d="M703.48 377.356H468.07C452.485 377.356 439.85 389.99 439.85 405.576V550.936C439.85 566.521 452.485 579.156 468.07 579.156H703.48C719.065 579.156 731.7 566.521 731.7 550.936V405.576C731.7 389.99 719.065 377.356 703.48 377.356Z" fill="url(#paint2_linear)"/>
<path id="Vector_56" d="M694.69 381.086H471.9C457.077 381.086 445.06 393.102 445.06 407.926V552.316C445.06 567.139 457.077 579.156 471.9 579.156H694.69C709.513 579.156 721.53 567.139 721.53 552.316V407.926C721.53 393.102 709.513 381.086 694.69 381.086Z" fill="#3E3F49"/>
<path id="Vector_57" d="M698.52 381.086H475.73C460.907 381.086 448.89 393.102 448.89 407.926V552.316C448.89 567.139 460.907 579.156 475.73 579.156H698.52C713.343 579.156 725.36 567.139 725.36 552.316V407.926C725.36 393.102 713.343 381.086 698.52 381.086Z" fill="#535461"/>
<path id="Vector_58" d="M600.04 487.686C604.972 487.686 608.97 483.688 608.97 478.756C608.97 473.824 604.972 469.826 600.04 469.826C595.108 469.826 591.11 473.824 591.11 478.756C591.11 483.688 595.108 487.686 600.04 487.686Z" fill="#E0E0E0"/>
</g>
<g id="blog">
<path id="Vector_59" d="M670 115V132.35V458.96H1174.92V132.35V115H670Z" fill="url(#paint3_linear)"/>
<path id="Vector_60" d="M1169.57 130.6H677.49V452.73H1169.57V130.6Z" fill="white"/>
<path id="Vector_61" d="M1169.57 115.28H677.49V138.98H1169.57V115.28Z" fill="#EEEEEE"/>
<path id="Vector_62" d="M696.21 132.52C699.386 132.52 701.96 129.946 701.96 126.77C701.96 123.594 699.386 121.02 696.21 121.02C693.034 121.02 690.46 123.594 690.46 126.77C690.46 129.946 693.034 132.52 696.21 132.52Z" fill="#FF5252"/>
<path id="Vector_63" d="M712.02 132.52C715.196 132.52 717.77 129.946 717.77 126.77C717.77 123.594 715.196 121.02 712.02 121.02C708.844 121.02 706.27 123.594 706.27 126.77C706.27 129.946 708.844 132.52 712.02 132.52Z" fill="#FFFF00"/>
<path id="Vector_64" d="M727.82 132.52C730.996 132.52 733.57 129.946 733.57 126.77C733.57 123.594 730.996 121.02 727.82 121.02C724.644 121.02 722.07 123.594 722.07 126.77C722.07 129.946 724.644 132.52 727.82 132.52Z" fill="#69F0AE"/>
<path id="Vector_65" opacity="0.5" d="M879.72 176.94H696.35V184.58H879.72V176.94Z" fill="#6C63FF"/>
<path id="Vector_66" opacity="0.5" d="M879.72 192.22H696.35V199.86H879.72V192.22Z" fill="#6C63FF"/>
<path id="Vector_67" opacity="0.5" d="M879.72 207.5H696.35V215.14H879.72V207.5Z" fill="#6C63FF"/>
<path id="Vector_68" opacity="0.5" d="M879.71 222.78H759.55V230.42H879.71V222.78Z" fill="#6C63FF"/>
<path id="Vector_69" opacity="0.5" d="M792.9 238.07H696.35V245.71H792.9V238.07Z" fill="#6C63FF"/>
<path id="Vector_70" opacity="0.5" d="M822.76 253.35H748.44V260.99H822.76V253.35Z" fill="#6C63FF"/>
<path id="Vector_71" opacity="0.5" d="M1120.05 230.43H904.03V354.76H1120.05V230.43Z" fill="#6C63FF"/>
<path id="Vector_72" d="M1145.75 242.23H929.73V366.56H1145.75V242.23Z" fill="#EEEEEE"/>
<path id="Vector_73" d="M1050.59 366.53H929.73V343.79C959.26 329.99 1004.69 322.24 1050.59 366.53Z" fill="#6C63FF"/>
<g id="Group" opacity="0.1">
<path id="Vector_74" opacity="0.1" d="M1144.36 363.31V366.53H993.63V365.84C993.63 365.84 1067.8 293.66 1144.36 363.31Z" fill="black"/>
</g>
<path id="Vector_75" d="M1145.75 363.31V366.53H995.02V365.84C995.02 365.84 1069.19 293.66 1145.75 363.31Z" fill="#6C63FF"/>
<path id="Vector_76" d="M954.74 275.57C960.876 275.57 965.85 270.596 965.85 264.46C965.85 258.324 960.876 253.35 954.74 253.35C948.604 253.35 943.63 258.324 943.63 264.46C943.63 270.596 948.604 275.57 954.74 275.57Z" fill="#6C63FF"/>
<path id="Vector_77" d="M1049.35 256.04C1048.08 256.04 1046.66 256.04 1045.7 256.12C1045.27 256.144 1044.84 256.232 1044.43 256.38L1037.89 258.73C1043.17 258.86 1048.68 258.82 1054.08 258.73L1084.42 258.5C1087.51 258.5 1090.77 258.45 1093.35 258.26C1095.08 258.14 1096.35 257.95 1097.94 257.81C1103.68 257.3 1112.06 257.4 1119.54 257.42C1127.02 257.44 1136.05 257.25 1138.68 256.5H1122.63C1120.9 256.5 1119.08 256.5 1117.55 256.41C1115.76 256.31 1114.67 256.11 1113.1 255.97C1110.5 255.75 1106.92 255.72 1103.58 255.71C1085.3 255.7 1067.23 256.14 1049.35 256.04Z" fill="#F4F4F4"/>
<path id="Vector_78" d="M1067.36 269.53C1067.08 269.53 1066.78 269.53 1066.57 269.53C1066.48 269.537 1066.39 269.558 1066.3 269.59L1064.88 270.1C1066.02 270.1 1067.22 270.1 1068.39 270.1L1074.96 270.05C1075.63 270.05 1076.33 270.05 1076.89 270L1077.89 269.9C1079.13 269.79 1080.95 269.81 1082.57 269.82C1083.96 269.866 1085.34 269.799 1086.72 269.62H1083.24C1082.86 269.62 1082.47 269.62 1082.14 269.62C1081.81 269.62 1081.52 269.55 1081.14 269.53C1080.58 269.53 1079.8 269.48 1079.08 269.47C1075.14 269.45 1071.23 269.53 1067.36 269.53Z" fill="#F4F4F4"/>
<path id="Vector_79" d="M1020.82 288.97C1020.54 288.97 1020.24 288.97 1020.03 288.97C1019.94 288.977 1019.85 288.998 1019.76 289.03L1018.34 289.54C1019.48 289.54 1020.68 289.54 1021.85 289.54L1028.42 289.49C1029.09 289.49 1029.79 289.49 1030.35 289.44L1031.35 289.34C1032.59 289.23 1034.41 289.25 1036.03 289.26C1037.42 289.306 1038.8 289.239 1040.18 289.06H1036.7C1036.32 289.06 1035.93 289.06 1035.6 289.06C1035.27 289.06 1034.98 288.99 1034.6 288.97C1034.04 288.97 1033.26 288.92 1032.54 288.91C1028.61 288.9 1024.69 288.99 1020.82 288.97Z" fill="#F4F4F4"/>
<path id="Vector_80" d="M994.68 360.4H989.5C989.5 360.4 987.87 303.28 994.72 285.65H996.03C996.03 285.65 991.42 350.29 994.68 360.4Z" fill="#6C63FF"/>
<path id="Vector_81" d="M991.09 282.72C991.09 282.72 986.85 294.47 988.81 299.72C988.81 299.72 991.75 288.95 995.18 287.32C998.61 285.69 1002.18 299.72 1002.18 299.72C1002.18 299.72 1004.18 290.91 1000.55 283.72C1005.14 286.438 1008.88 290.396 1011.32 295.14C1011.32 295.14 1011.97 290.24 1003.49 280.14C1003.49 280.14 1011 282.14 1015.89 286.67C1015.89 286.67 1017.52 283.08 1007.4 277.2C1007.4 277.2 1008.71 272.96 1016.54 274.92C1016.54 274.92 1016.54 269.37 1004.14 270.35C1004.14 270.35 1004.14 266.76 1012.3 267.41C1012.3 267.41 1012.3 262.84 1002.83 264.47C1002.83 264.47 1004.83 261.53 1006.09 260.88C1004.46 260.73 1002.83 261.197 1001.52 262.19C1001.52 262.19 1001.85 256.31 996.95 254.03L996.3 262.19C996.3 262.19 990.81 255.72 992.06 256.97C992.848 258.937 993.19 261.055 993.06 263.17C993.06 263.17 987.51 258.6 980.66 263.5C980.66 263.5 989.15 264.15 990.45 267.09C990.45 267.09 983.27 265.78 981.64 266.76C981.64 266.76 987.19 268.76 986.86 270.02C986.86 270.02 977.07 270.02 975.76 273.61C975.76 273.61 985.88 274.92 986.53 275.89C986.53 275.89 974.78 284.38 974.13 286.66C974.13 286.66 986.21 279.48 988.13 279.48C990.05 279.48 979.32 289.93 979.97 292.54C980 292.53 988.81 282.06 991.09 282.72Z" fill="#6C63FF"/>
<path id="Vector_82" d="M1059.11 358.27H1063.11C1063.11 358.27 1064.36 314.63 1059.11 301.16H1058.11C1058.11 301.16 1061.6 350.53 1059.11 358.27Z" fill="#6C63FF"/>
<path id="Vector_83" d="M1061.85 298.91C1061.85 298.91 1065.09 307.91 1063.6 311.91C1063.6 311.91 1061.36 303.68 1058.74 302.43C1056.12 301.18 1053.38 311.91 1053.38 311.91C1053.38 311.91 1051.88 305.18 1054.63 299.69C1051.12 301.768 1048.27 304.794 1046.4 308.42C1046.4 308.42 1045.9 304.68 1052.4 296.95C1052.4 296.95 1046.66 298.45 1042.92 301.95C1042.92 301.95 1041.67 299.21 1049.4 294.72C1049.4 294.72 1048.4 291.48 1042.4 292.97C1042.4 292.97 1042.4 288.73 1051.88 289.48C1051.88 289.48 1051.88 286.74 1045.65 287.24C1045.65 287.24 1045.65 283.75 1052.88 285C1052.21 283.953 1051.37 283.026 1050.39 282.26C1051.64 282.144 1052.88 282.501 1053.88 283.26C1053.88 283.26 1053.63 278.77 1057.37 277.03L1057.87 283.26C1057.87 283.26 1062.06 278.32 1061.11 279.26C1060.51 280.765 1060.26 282.384 1060.36 284C1060.36 284 1064.6 280.51 1069.84 284.25C1069.84 284.25 1063.36 284.75 1062.36 286.99C1062.36 286.99 1067.85 285.99 1069.09 286.74C1069.09 286.74 1064.85 288.24 1065.09 289.23C1065.09 289.23 1072.57 289.23 1073.57 291.97C1073.57 291.97 1065.84 292.97 1065.34 293.72C1065.34 293.72 1074.34 300.2 1074.82 301.95C1074.82 301.95 1065.59 296.46 1064.1 296.46C1062.61 296.46 1070.83 304.46 1070.33 306.46C1070.33 306.39 1063.6 298.41 1061.85 298.91Z" fill="#6C63FF"/>
<path id="Vector_84" d="M1106.85 349.74H1109.32C1109.32 349.74 1110.09 322.74 1106.85 314.37H1106.23C1106.23 314.37 1108.39 344.95 1106.85 349.74Z" fill="#6C63FF"/>
<path id="Vector_85" d="M1108.5 312.98C1108.5 312.98 1110.5 318.54 1109.58 320.98C1109.58 320.98 1108.19 315.88 1106.58 315.11C1104.97 314.34 1103.26 320.98 1103.26 320.98C1102.75 318.437 1103.02 315.799 1104.03 313.41C1101.85 314.697 1100.09 316.573 1098.93 318.82C1098.93 318.82 1098.62 316.5 1102.64 311.72C1100.49 312.319 1098.48 313.373 1096.77 314.81C1096.77 314.81 1096 313.11 1100.77 310.33C1100.77 310.33 1100.15 308.33 1096.45 309.25C1096.45 309.25 1096.45 306.62 1102.32 307.09C1102.32 307.09 1102.32 305.39 1098.46 305.7C1098.46 305.7 1098.46 303.54 1102.94 304.31C1102.53 303.66 1102.01 303.085 1101.4 302.61C1102.17 302.54 1102.94 302.761 1103.56 303.23C1103.52 302.449 1103.71 301.673 1104.09 300.991C1104.47 300.309 1105.03 299.747 1105.72 299.37L1106.03 303.23C1106.03 303.23 1108.63 300.17 1108.03 300.76C1107.66 301.691 1107.5 302.691 1107.57 303.69C1108.43 303.063 1109.47 302.738 1110.53 302.765C1111.59 302.792 1112.62 303.17 1113.44 303.84C1113.44 303.84 1109.44 304.15 1108.81 305.54C1108.81 305.54 1112.21 304.92 1112.98 305.39C1112.98 305.39 1110.35 306.32 1110.51 306.93C1110.51 306.93 1115.14 306.93 1115.76 308.63C1115.76 308.63 1110.97 309.25 1110.66 309.71C1110.66 309.71 1116.22 313.71 1116.53 314.81C1116.53 314.81 1110.82 311.41 1109.89 311.41C1108.96 311.41 1114.06 316.35 1113.75 317.59C1113.8 317.61 1109.63 312.67 1108.5 312.98Z" fill="#6C63FF"/>
<path id="Vector_86" d="M1016.5 319.18L1015.98 316.4C1015.98 316.196 1015.94 315.994 1015.86 315.807C1015.78 315.62 1015.66 315.451 1015.51 315.31L1013.1 314.13C1012.92 313.914 1012.78 313.671 1012.67 313.41V313.35C1012.8 313.183 1012.9 312.988 1012.95 312.78C1012.95 312.727 1012.95 312.673 1012.95 312.62V312.62C1013.18 312.652 1013.41 312.595 1013.59 312.461C1013.78 312.327 1013.91 312.126 1013.95 311.9V311.84C1013.9 312.023 1013.8 312.187 1013.65 312.307C1013.51 312.428 1013.33 312.499 1013.14 312.51C1013.47 312.289 1013.74 311.992 1013.93 311.644C1014.12 311.295 1014.22 310.907 1014.23 310.51C1014.23 310.51 1014.23 310.44 1014.23 310.41C1014.34 310.344 1014.43 310.257 1014.5 310.154C1014.57 310.05 1014.62 309.933 1014.64 309.81V309.75C1014.61 309.868 1014.56 309.978 1014.48 310.074C1014.41 310.171 1014.32 310.251 1014.21 310.31C1014.19 310.081 1014.14 309.855 1014.06 309.64H1014.12C1014.36 309.64 1014.58 309.546 1014.75 309.379C1014.92 309.212 1015.01 308.986 1015.01 308.75C1015.01 308.75 1015.01 308.75 1015.01 308.69C1014.99 308.915 1014.89 309.127 1014.73 309.281C1014.56 309.435 1014.35 309.521 1014.12 309.52H1014.01C1014.27 309.436 1014.5 309.28 1014.68 309.069C1014.86 308.859 1014.97 308.602 1015.01 308.33C1015.01 308.33 1015.01 308.33 1015.01 308.27C1015 308.444 1014.94 308.611 1014.83 308.75C1014.85 308.634 1014.84 308.515 1014.81 308.401C1014.78 308.288 1014.73 308.18 1014.66 308.086C1014.59 307.992 1014.5 307.912 1014.4 307.852C1014.3 307.792 1014.19 307.752 1014.07 307.735C1013.96 307.718 1013.84 307.724 1013.73 307.753C1013.61 307.781 1013.51 307.832 1013.41 307.902C1013.32 307.972 1013.24 308.06 1013.18 308.161C1013.12 308.262 1013.08 308.374 1013.06 308.49L1012.9 308.4C1012.95 308.22 1013.06 308.061 1013.2 307.945C1013.35 307.828 1013.52 307.76 1013.71 307.75H1013.65C1013.46 307.746 1013.28 307.802 1013.12 307.91C1012.97 308.018 1012.85 308.172 1012.79 308.35C1012.25 308.1 1011.64 308.053 1011.07 308.216C1010.5 308.38 1010.01 308.743 1009.69 309.24C1009.5 309.38 1009.26 309.58 1009.27 309.75C1009.19 309.83 1009.12 309.917 1009.06 310.01C1008.8 310.589 1008.7 311.229 1008.78 311.86C1008.82 312.174 1008.78 312.491 1008.66 312.787C1008.55 313.082 1008.37 313.347 1008.14 313.56C1008.24 313.604 1008.36 313.627 1008.47 313.627C1008.58 313.627 1008.7 313.604 1008.8 313.56C1009.01 313.473 1009.2 313.359 1009.38 313.22C1009.54 313.122 1009.68 312.989 1009.79 312.83V312.83C1009.91 312.906 1010.03 312.97 1010.16 313.02C1010.21 313.44 1010.22 313.92 1010.04 314.07V313.99C1009.59 314.33 1009.03 314.491 1008.47 314.44C1008.14 314.459 1007.82 314.56 1007.53 314.735C1007.25 314.909 1007.02 315.152 1006.85 315.44L1006.1 318.65V318.7V318.75C1006.11 318.794 1006.13 318.834 1006.16 318.866C1006.2 318.898 1006.24 318.92 1006.28 318.93L1006.51 318.99C1006.59 319.501 1006.58 320.02 1006.5 320.53C1006.34 321.307 1006.25 322.097 1006.23 322.89C1006.29 323.29 1006.39 325.35 1006.43 326.33C1006.35 326.66 1006.28 326.994 1006.23 327.33L1005.11 334.04C1005.11 334.04 1004.28 339.41 1004.32 341.04L1004.17 341.98C1004.17 341.98 1001.9 344.83 1002.57 345.23C1003.24 345.63 1004.26 345.81 1005.24 344.29C1005.37 343.933 1005.58 343.611 1005.86 343.35C1005.97 343.254 1006.06 343.133 1006.11 342.997C1006.16 342.862 1006.18 342.715 1006.17 342.57L1006.1 341.91H1006.22H1006.29C1006.91 339.885 1007.24 337.786 1007.29 335.67C1007.29 335.67 1009.36 328.29 1010.94 327.13L1011.09 327.06L1011.43 334.2L1011.09 342.08L1011.02 342.55C1011.02 342.55 1008.75 345.4 1009.42 345.8C1010.09 346.2 1011.11 346.38 1012.09 344.86C1012.22 344.503 1012.43 344.181 1012.71 343.92C1012.82 343.824 1012.91 343.703 1012.96 343.567C1013.01 343.432 1013.03 343.285 1013.02 343.14L1012.92 342.14C1013.31 340.82 1014.32 336.99 1013.92 334.78L1014.61 330.07C1015.31 329.29 1015.21 327.3 1015.21 327.3C1015.76 326.16 1015.88 321.66 1015.88 321.66L1016.02 319.44H1016.33H1016.44L1016.49 319.38V319.33L1016.5 319.18ZM1014.56 323.69C1014.5 323.54 1014.43 323.38 1014.35 323.23H1014.29V323.17V323.12V323.06C1014.32 322.985 1014.35 322.908 1014.37 322.83C1014.46 322.686 1014.5 322.519 1014.5 322.35C1014.6 322.789 1014.63 323.241 1014.6 323.69H1014.56ZM1014.35 321.79L1014.21 320.3V320.18L1014.4 322.07L1014.35 321.79ZM1007.76 321.99C1007.71 322.045 1007.68 322.109 1007.66 322.177C1007.64 322.246 1007.63 322.319 1007.64 322.39C1007.64 322.39 1007.64 322.39 1007.64 322.39C1007.64 322.542 1007.66 322.693 1007.7 322.84L1007.48 323.77V321.99C1007.62 321.801 1007.74 321.601 1007.85 321.39C1007.9 321.589 1007.88 321.799 1007.81 321.99H1007.76Z" fill="url(#paint4_linear)"/>
<path id="Vector_87" d="M1009.21 310.53C1008.96 311.087 1008.86 311.703 1008.94 312.31C1008.98 312.613 1008.94 312.921 1008.83 313.206C1008.72 313.492 1008.55 313.747 1008.32 313.95C1008.42 313.992 1008.53 314.013 1008.64 314.013C1008.74 314.013 1008.85 313.992 1008.95 313.95C1009.15 313.866 1009.34 313.755 1009.51 313.62C1009.67 313.524 1009.8 313.394 1009.9 313.24C1010 312.999 1010.03 312.737 1009.99 312.48C1009.99 312.027 1010.03 311.576 1010.11 311.13C1010.11 310.85 1010.42 310.13 1010.11 309.95C1009.8 309.77 1009.35 310.31 1009.21 310.53Z" fill="#72351C"/>
<path id="Vector_88" d="M1004.62 340.04L1004.41 341.41C1004.41 341.41 1002.22 344.16 1002.87 344.54C1003.52 344.92 1004.5 345.1 1005.44 343.64C1005.57 343.298 1005.77 342.989 1006.04 342.74V342.74C1006.15 342.647 1006.23 342.531 1006.28 342.401C1006.33 342.271 1006.35 342.13 1006.34 341.99L1006.13 339.87L1004.62 340.04Z" fill="#333333"/>
<path id="Vector_89" d="M1011.21 340.59L1011 341.96C1011 341.96 1008.81 344.71 1009.46 345.09C1010.11 345.47 1011.09 345.65 1012.03 344.19C1012.16 343.848 1012.36 343.54 1012.63 343.29V343.29C1012.74 343.198 1012.82 343.081 1012.87 342.951C1012.92 342.821 1012.94 342.68 1012.93 342.54L1012.72 340.42L1011.21 340.59Z" fill="#333333"/>
<path id="Vector_90" d="M1007.8 323.98C1007.8 323.98 1006.8 324.72 1006.39 327.31L1005.31 333.77C1004.92 336.086 1004.67 338.424 1004.57 340.77L1006.39 341.39C1007 339.445 1007.33 337.426 1007.39 335.39C1007.39 335.39 1009.58 327.6 1011.11 327.05L1011.43 333.93L1011.09 341.69L1012.65 342C1012.65 342 1014.23 337.07 1013.73 334.46L1014.54 328.91C1015.06 327.081 1014.94 325.126 1014.18 323.38L1007.8 323.98Z" fill="#4D8AF0"/>
<g id="Group_2" opacity="0.1">
<path id="Vector_91" opacity="0.1" d="M1010.93 327.15V327.03C1009.4 327.58 1007.21 335.37 1007.21 335.37C1007.17 337.384 1006.86 339.383 1006.27 341.31L1006.47 341.38C1007.08 339.435 1007.41 337.416 1007.47 335.38C1007.47 335.38 1009.41 328.27 1010.93 327.15Z" fill="black"/>
<path id="Vector_92" opacity="0.1" d="M1014.21 323.36H1014C1014.75 325.102 1014.87 327.048 1014.35 328.87L1013.54 334.42C1014.02 336.89 1012.62 341.42 1012.48 341.92H1012.68C1012.68 341.92 1014.26 336.99 1013.76 334.38L1014.57 328.83C1015.08 327.019 1014.95 325.088 1014.21 323.36Z" fill="black"/>
</g>
<path id="Vector_93" d="M1006.4 318.92C1006.4 318.973 1006.42 319.025 1006.45 319.067C1006.48 319.109 1006.53 319.138 1006.58 319.15C1007.08 319.269 1007.55 319.494 1007.96 319.81C1008.73 320.41 1007.15 318.61 1007.15 318.61L1006.62 318.73L1006.4 318.92V318.92Z" fill="#F55F44"/>
<path id="Vector_94" opacity="0.1" d="M1006.4 318.92C1006.4 318.973 1006.42 319.025 1006.45 319.067C1006.48 319.109 1006.53 319.138 1006.58 319.15C1007.08 319.269 1007.55 319.494 1007.96 319.81C1008.73 320.41 1007.15 318.61 1007.15 318.61L1006.62 318.73L1006.4 318.92V318.92Z" fill="black"/>
<path id="Vector_95" d="M1013.92 320.53C1014.56 320.07 1015.31 319.775 1016.09 319.67C1016.14 319.67 1016.19 319.649 1016.23 319.611C1016.27 319.574 1016.29 319.523 1016.29 319.47V319.47C1016.07 319.368 1015.82 319.315 1015.58 319.314C1015.33 319.313 1015.09 319.364 1014.87 319.465C1014.64 319.565 1014.44 319.712 1014.28 319.896C1014.11 320.079 1013.99 320.295 1013.92 320.53V320.53Z" fill="#F55F44"/>
<path id="Vector_96" opacity="0.1" d="M1016.29 319.44C1016.07 319.338 1015.82 319.285 1015.58 319.284C1015.33 319.283 1015.09 319.334 1014.87 319.435C1014.64 319.535 1014.44 319.682 1014.28 319.866C1014.11 320.049 1013.99 320.265 1013.92 320.5C1013.92 320.5 1015.26 319.5 1016.19 319.64" fill="black"/>
<path id="Vector_97" d="M1011.81 313.44C1013.12 313.44 1014.18 312.379 1014.18 311.07C1014.18 309.761 1013.12 308.7 1011.81 308.7C1010.5 308.7 1009.44 309.761 1009.44 311.07C1009.44 312.379 1010.5 313.44 1011.81 313.44Z" fill="#72351C"/>
<path id="Vector_98" d="M1010.17 312.73C1010.17 312.73 1010.51 314.12 1010.17 314.41C1009.83 314.7 1009.17 315.22 1009.67 315.63C1010.17 316.04 1011.99 316.73 1012.59 316.4C1013.19 316.07 1013.88 316.16 1013.72 315.47C1013.56 314.78 1012.24 314.92 1012.21 311.47L1010.17 312.73Z" fill="#FDB797"/>
<path id="Vector_99" opacity="0.1" d="M1006.82 318.53C1006.87 319.283 1006.82 320.039 1006.68 320.78C1006.53 321.528 1006.44 322.287 1006.42 323.05C1006.49 323.55 1006.64 326.86 1006.64 326.86C1006.64 326.86 1006.38 329.76 1007.79 329.49C1009.2 329.22 1007.57 326.19 1007.57 326.19L1007.64 322.19C1008.03 321.673 1008.28 321.063 1008.36 320.42C1008.42 319.53 1006.82 318.53 1006.82 318.53Z" fill="black"/>
<path id="Vector_100" d="M1006.79 318.53C1006.84 319.283 1006.79 320.039 1006.65 320.78C1006.5 321.528 1006.41 322.287 1006.39 323.05C1006.46 323.55 1006.61 326.86 1006.61 326.86C1006.61 326.86 1006.35 329.76 1007.76 329.49C1009.17 329.22 1007.54 326.19 1007.54 326.19L1007.61 322.19C1008 321.673 1008.25 321.063 1008.33 320.42C1008.4 319.53 1006.79 318.53 1006.79 318.53Z" fill="#FDB797"/>
<path id="Vector_101" opacity="0.1" d="M1015.82 318.72L1015.63 321.81C1015.63 321.81 1015.51 326.14 1014.98 327.24C1014.98 327.24 1015.12 330.24 1013.71 330.24C1012.3 330.24 1013.95 326.91 1013.95 326.91C1013.95 326.91 1014.71 323.53 1014.32 322.45L1013.95 318.74L1015.82 318.72Z" fill="black"/>
<path id="Vector_102" d="M1015.84 318.72L1015.65 321.81C1015.65 321.81 1015.53 326.14 1015 327.24C1015 327.24 1015.14 330.24 1013.73 330.24C1012.32 330.24 1013.97 326.91 1013.97 326.91C1013.97 326.91 1014.73 323.53 1014.34 322.45L1013.97 318.74L1015.84 318.72Z" fill="#FDB797"/>
<path id="Vector_103" opacity="0.1" d="M1011.25 315.72C1011.25 315.72 1012.39 316.25 1013.02 314.72L1015.35 315.86C1015.49 315.995 1015.61 316.158 1015.68 316.339C1015.76 316.519 1015.8 316.714 1015.8 316.91L1016.3 319.59C1016.09 319.507 1015.86 319.467 1015.63 319.472C1015.41 319.477 1015.18 319.528 1014.97 319.621C1014.77 319.714 1014.58 319.848 1014.42 320.014C1014.27 320.181 1014.15 320.376 1014.07 320.59L1014.21 322.1C1014.32 322.473 1014.3 322.874 1014.14 323.23C1014.13 323.262 1014.12 323.296 1014.12 323.33C1014.12 323.364 1014.13 323.398 1014.14 323.43C1014.18 323.54 1014.2 323.659 1014.18 323.776C1014.17 323.892 1014.13 324.004 1014.06 324.102C1014 324.2 1013.91 324.281 1013.81 324.338C1013.7 324.395 1013.59 324.426 1013.47 324.43C1012.84 324.435 1012.22 324.482 1011.6 324.57C1011.1 324.71 1009.6 324.28 1009.09 324.57C1008.58 324.86 1007.53 324.35 1007.53 324.35L1007.82 323.13C1007.82 323.13 1007.63 322.53 1007.82 322.32C1008 321.454 1007.96 320.556 1007.7 319.71C1007.7 319.71 1006.84 318.9 1006.34 319.04L1007.06 315.95C1007.21 315.663 1007.43 315.42 1007.71 315.244C1007.98 315.069 1008.3 314.968 1008.62 314.95C1009.16 314.999 1009.7 314.846 1010.13 314.52C1010.13 314.52 1009.57 315.53 1011.25 315.72Z" fill="black"/>
<path id="Vector_104" opacity="0.1" d="M1011.37 315.67C1011.68 315.75 1012.52 315.85 1013.02 314.59L1015.35 315.73C1015.49 315.865 1015.61 316.028 1015.68 316.209C1015.76 316.389 1015.8 316.584 1015.8 316.78L1016.3 319.46C1016.09 319.377 1015.86 319.337 1015.63 319.342C1015.41 319.347 1015.18 319.398 1014.97 319.491C1014.77 319.584 1014.58 319.718 1014.42 319.884C1014.27 320.051 1014.15 320.246 1014.07 320.46L1014.21 321.97L1014.3 322.27C1014.34 322.397 1014.35 322.532 1014.33 322.664C1014.31 322.796 1014.26 322.922 1014.18 323.03C1014.15 323.072 1014.14 323.121 1014.14 323.17C1014.14 323.219 1014.15 323.268 1014.18 323.31C1014.22 323.42 1014.24 323.539 1014.22 323.656C1014.21 323.772 1014.17 323.884 1014.1 323.982C1014.04 324.08 1013.95 324.161 1013.85 324.218C1013.74 324.275 1013.63 324.306 1013.51 324.31C1012.88 324.315 1012.26 324.362 1011.64 324.45C1011.14 324.59 1009.64 324.16 1009.13 324.45C1008.62 324.74 1007.57 324.23 1007.57 324.23L1007.86 323.01C1007.86 323.01 1007.67 322.41 1007.86 322.2C1008.04 321.334 1008 320.436 1007.74 319.59C1007.74 319.59 1006.88 318.78 1006.38 318.92L1007.1 315.83C1007.25 315.543 1007.47 315.3 1007.75 315.124C1008.02 314.949 1008.34 314.848 1008.66 314.83C1009.2 314.879 1009.74 314.726 1010.17 314.4C1010.17 314.4 1009.61 315.4 1011.09 315.65L1011.37 315.67Z" fill="black"/>
<path id="Vector_105" d="M1011.37 315.72C1011.68 315.8 1012.52 315.9 1013.02 314.64L1015.35 315.78C1015.49 315.915 1015.61 316.078 1015.68 316.259C1015.76 316.439 1015.8 316.634 1015.8 316.83L1016.3 319.51C1016.09 319.427 1015.86 319.387 1015.63 319.392C1015.41 319.397 1015.18 319.448 1014.97 319.541C1014.77 319.634 1014.58 319.768 1014.42 319.934C1014.27 320.101 1014.15 320.296 1014.07 320.51L1014.21 322.02C1014.32 322.393 1014.3 322.794 1014.14 323.15C1014.13 323.182 1014.12 323.216 1014.12 323.25C1014.12 323.284 1014.13 323.318 1014.14 323.35C1014.18 323.46 1014.2 323.579 1014.18 323.696C1014.17 323.812 1014.13 323.924 1014.06 324.022C1014 324.12 1013.91 324.201 1013.81 324.258C1013.7 324.315 1013.59 324.346 1013.47 324.35C1012.84 324.355 1012.22 324.402 1011.6 324.49C1011.1 324.63 1009.6 324.2 1009.09 324.49C1008.58 324.78 1007.53 324.27 1007.53 324.27L1007.82 323.05C1007.82 323.05 1007.63 322.45 1007.82 322.24C1008 321.374 1007.96 320.476 1007.7 319.63C1007.7 319.63 1006.84 318.82 1006.34 318.96L1007.06 315.87C1007.21 315.583 1007.43 315.34 1007.71 315.164C1007.98 314.989 1008.3 314.888 1008.62 314.87C1009.16 314.919 1009.7 314.766 1010.13 314.44C1010.13 314.44 1009.57 315.44 1011.05 315.69L1011.37 315.72Z" fill="#F55F44"/>
<path id="Vector_106" opacity="0.1" d="M1012.25 311.58L1010.25 312.85C1010.3 313.068 1010.34 313.288 1010.37 313.51C1010.6 313.602 1010.85 313.649 1011.1 313.65C1011.6 313.617 1012.07 313.404 1012.42 313.05C1012.32 312.566 1012.26 312.074 1012.25 311.58V311.58Z" fill="black"/>
<path id="Vector_107" d="M1011.02 313.53C1012.1 313.53 1012.98 312.652 1012.98 311.57C1012.98 310.488 1012.1 309.61 1011.02 309.61C1009.94 309.61 1009.06 310.488 1009.06 311.57C1009.06 312.652 1009.94 313.53 1011.02 313.53Z" fill="#FDB797"/>
<path id="Vector_108" d="M1013.92 310.06C1014.4 310.06 1014.78 309.675 1014.78 309.2C1014.78 308.725 1014.4 308.34 1013.92 308.34C1013.45 308.34 1013.06 308.725 1013.06 309.2C1013.06 309.675 1013.45 310.06 1013.92 310.06Z" fill="#72351C"/>
<path id="Vector_109" d="M1014.08 310.11C1013.86 310.111 1013.65 310.028 1013.49 309.88C1013.33 309.731 1013.24 309.528 1013.22 309.31C1013.22 309.31 1013.22 309.31 1013.22 309.37C1013.22 309.598 1013.31 309.817 1013.47 309.978C1013.63 310.139 1013.85 310.23 1014.08 310.23C1014.31 310.23 1014.53 310.139 1014.69 309.978C1014.85 309.817 1014.94 309.598 1014.94 309.37C1014.94 309.37 1014.94 309.37 1014.94 309.31C1014.92 309.528 1014.83 309.731 1014.67 309.88C1014.51 310.028 1014.3 310.111 1014.08 310.11V310.11Z" fill="#72351C"/>
<path id="Vector_110" d="M1013.59 310.97C1013.38 310.931 1013.18 310.812 1013.06 310.638C1012.93 310.463 1012.87 310.246 1012.89 310.03V310.09C1012.85 310.315 1012.9 310.548 1013.03 310.736C1013.16 310.925 1013.36 311.054 1013.59 311.095C1013.81 311.136 1014.04 311.086 1014.23 310.956C1014.42 310.825 1014.55 310.625 1014.59 310.4V310.34C1014.54 310.553 1014.4 310.737 1014.22 310.854C1014.03 310.971 1013.81 311.013 1013.59 310.97Z" fill="#72351C"/>
<path id="Vector_111" d="M1012.92 313.03C1012.71 312.991 1012.51 312.872 1012.39 312.698C1012.26 312.523 1012.2 312.306 1012.22 312.09V312.15C1012.18 312.375 1012.23 312.608 1012.36 312.796C1012.49 312.985 1012.69 313.114 1012.91 313.155C1013.14 313.196 1013.37 313.146 1013.56 313.016C1013.75 312.885 1013.88 312.685 1013.92 312.46V312.4C1013.87 312.613 1013.73 312.797 1013.55 312.914C1013.36 313.031 1013.14 313.073 1012.92 313.03V313.03Z" fill="#72351C"/>
<path id="Vector_112" d="M1014.08 309.66C1013.86 309.661 1013.65 309.578 1013.49 309.43C1013.33 309.281 1013.24 309.078 1013.22 308.86C1013.22 308.86 1013.22 308.86 1013.22 308.92C1013.22 309.148 1013.31 309.367 1013.47 309.528C1013.63 309.689 1013.85 309.78 1014.08 309.78C1014.31 309.78 1014.53 309.689 1014.69 309.528C1014.85 309.367 1014.94 309.148 1014.94 308.92C1014.94 308.92 1014.94 308.92 1014.94 308.86C1014.92 309.078 1014.83 309.281 1014.67 309.43C1014.51 309.578 1014.3 309.661 1014.08 309.66V309.66Z" fill="#72351C"/>
<path id="Vector_113" d="M1012.88 309.19C1012.88 308.972 1012.97 308.763 1013.12 308.605C1013.27 308.447 1013.47 308.353 1013.69 308.34H1013.63C1013.4 308.34 1013.18 308.431 1013.02 308.592C1012.86 308.753 1012.77 308.972 1012.77 309.2C1012.77 309.428 1012.86 309.647 1013.02 309.808C1013.18 309.969 1013.4 310.06 1013.63 310.06H1013.69C1013.47 310.047 1013.26 309.95 1013.11 309.787C1012.96 309.625 1012.88 309.411 1012.88 309.19V309.19Z" fill="#72351C"/>
<path id="Vector_114" opacity="0.1" d="M1013.75 317.32C1013.84 317.745 1013.84 318.185 1013.75 318.61C1013.75 318.61 1013.63 319.74 1013.82 319.93" fill="black"/>
<path id="Vector_115" opacity="0.1" d="M1007.93 317.53C1008.02 317.955 1008.02 318.395 1007.93 318.82C1007.93 318.82 1007.81 319.95 1008 320.14" fill="black"/>
<path id="Vector_116" opacity="0.1" d="M1007.88 322.2C1008.06 322.265 1008.27 322.265 1008.45 322.2C1008.68 322.132 1008.91 322.132 1009.14 322.2" fill="black"/>
<path id="Vector_117" opacity="0.1" d="M1008.17 320.53C1008.85 320.564 1009.53 320.459 1010.17 320.22C1010.17 320.22 1012.61 320.82 1013.31 320.39" fill="black"/>
<path id="Vector_118" d="M1007.49 330.82H1006.82C1006.59 330.82 1006.4 331.008 1006.4 331.24V331.33C1006.4 331.562 1006.59 331.75 1006.82 331.75H1007.49C1007.72 331.75 1007.91 331.562 1007.91 331.33V331.24C1007.91 331.008 1007.72 330.82 1007.49 330.82Z" fill="#FDB797"/>
<path id="Vector_119" d="M1006.4 331.06H1007.21L1007.91 331.17H1007.66L1006.4 331.06Z" fill="#F0E4E4"/>
<path id="Vector_120" d="M1011.83 327.18H1012.64L1013.34 327.25H1013.09L1011.83 327.18Z" fill="#F0E4E4"/>
<path id="Vector_121" d="M1011.83 327.35H1012.64L1013.34 327.42H1013.09L1011.83 327.35Z" fill="#F0E4E4"/>
<path id="Vector_122" d="M1011.83 327.53H1012.64L1013.34 327.6H1013.09L1011.83 327.53Z" fill="#F0E4E4"/>
<path id="Vector_123" d="M1011.83 327.68H1012.64L1013.34 327.75H1013.09L1011.83 327.68Z" fill="#F0E4E4"/>
<path id="Vector_124" d="M1006.4 331.72H1007.21L1007.91 331.8H1007.66L1006.4 331.72Z" fill="#F0E4E4"/>
<path id="Vector_125" d="M1006.4 331.64H1007.21L1007.91 331.72H1007.66L1006.4 331.64Z" fill="#F0E4E4"/>
<path id="Vector_126" d="M1006.4 331.53H1007.21L1007.91 331.61H1007.66L1006.4 331.53Z" fill="#F0E4E4"/>
<path id="Vector_127" d="M1006.4 331.47H1007.21L1007.91 331.55H1007.66L1006.4 331.47Z" fill="#F0E4E4"/>
<path id="Vector_128" d="M1006.4 330.95H1007.21L1007.91 331.06H1007.66L1006.4 330.95Z" fill="#F0E4E4"/>
<path id="Vector_129" d="M1006.4 330.81H1007.21L1007.91 330.92H1007.66L1006.4 330.81Z" fill="#F0E4E4"/>
<path id="Vector_130" opacity="0.1" d="M1011.35 310.31C1011.27 311.041 1011.36 311.781 1011.62 312.47C1011.74 312.803 1011.8 313.158 1011.77 313.512C1011.75 313.867 1011.66 314.213 1011.5 314.53C1011.61 314.556 1011.72 314.556 1011.82 314.53C1011.93 314.504 1012.03 314.452 1012.11 314.38C1012.28 314.229 1012.43 314.054 1012.55 313.86C1012.68 313.702 1012.77 313.518 1012.82 313.32C1012.84 313.01 1012.79 312.7 1012.68 312.41C1012.55 311.877 1012.45 311.336 1012.39 310.79C1012.39 310.46 1012.39 309.5 1012.02 309.41C1011.65 309.32 1011.42 310.03 1011.35 310.31Z" fill="black"/>
<path id="Vector_131" d="M1011.4 310.29C1011.32 311.021 1011.41 311.761 1011.67 312.45C1011.8 312.785 1011.85 313.143 1011.83 313.502C1011.82 313.86 1011.72 314.21 1011.56 314.53C1011.67 314.556 1011.78 314.556 1011.88 314.53C1011.99 314.504 1012.09 314.452 1012.17 314.38C1012.34 314.229 1012.49 314.054 1012.61 313.86C1012.74 313.702 1012.83 313.518 1012.88 313.32C1012.9 313.01 1012.85 312.7 1012.74 312.41C1012.61 311.877 1012.51 311.336 1012.45 310.79C1012.45 310.46 1012.45 309.5 1012.08 309.41C1011.71 309.32 1011.5 310.01 1011.4 310.29Z" fill="#72351C"/>
<path id="Vector_132" opacity="0.1" d="M1010.56 310.8C1010.72 310.97 1010.76 311.23 1010.9 311.43C1011.03 311.566 1011.18 311.672 1011.36 311.74C1011.53 311.807 1011.71 311.835 1011.9 311.82C1012 311.815 1012.09 311.836 1012.18 311.88C1012.33 311.98 1012.34 312.2 1012.44 312.35C1012.49 312.408 1012.55 312.454 1012.63 312.485C1012.7 312.517 1012.77 312.533 1012.85 312.533C1012.93 312.533 1013 312.517 1013.07 312.485C1013.15 312.454 1013.21 312.408 1013.26 312.35C1013.43 312.11 1013.51 311.822 1013.5 311.53C1013.53 311.197 1013.53 310.863 1013.5 310.53C1013.49 310.134 1013.33 309.756 1013.06 309.47C1012.83 309.302 1012.57 309.189 1012.29 309.14C1011.91 309.005 1011.5 308.974 1011.1 309.05C1010.91 309.114 1010.73 309.205 1010.56 309.32L1009.86 309.79C1009.6 309.97 1009.12 310.33 1009.59 310.53C1009.93 310.6 1010.31 310.53 1010.56 310.8Z" fill="black"/>
<path id="Vector_133" d="M1010.61 310.78C1010.77 310.95 1010.81 311.21 1010.95 311.41C1011.08 311.546 1011.23 311.652 1011.41 311.72C1011.58 311.787 1011.76 311.815 1011.95 311.8C1012.05 311.795 1012.14 311.816 1012.23 311.86C1012.38 311.96 1012.39 312.18 1012.49 312.33C1012.54 312.388 1012.6 312.434 1012.68 312.465C1012.75 312.497 1012.82 312.513 1012.9 312.513C1012.98 312.513 1013.05 312.497 1013.12 312.465C1013.2 312.434 1013.26 312.388 1013.31 312.33C1013.51 312.089 1013.62 311.784 1013.62 311.47C1013.65 311.137 1013.65 310.803 1013.62 310.47C1013.61 310.074 1013.45 309.696 1013.18 309.41C1012.95 309.242 1012.69 309.129 1012.41 309.08C1012.03 308.945 1011.62 308.914 1011.22 308.99C1011.03 309.054 1010.85 309.145 1010.68 309.26L1009.98 309.73C1009.72 309.91 1009.24 310.27 1009.71 310.47C1009.98 310.53 1010.35 310.53 1010.61 310.78Z" fill="#72351C"/>
<path id="Vector_134" d="M1011.88 327.18H1012.69L1013.39 327.25H1013.14L1011.88 327.18Z" fill="#F0E4E4"/>
<path id="Vector_135" d="M1011.88 327.35H1012.69L1013.39 327.42H1013.14L1011.88 327.35Z" fill="#F0E4E4"/>
<path id="Vector_136" d="M1011.88 327.53H1012.69L1013.39 327.6H1013.14L1011.88 327.53Z" fill="#F0E4E4"/>
<path id="Vector_137" d="M1011.88 327.68H1012.69L1013.39 327.75H1013.14L1011.88 327.68Z" fill="#F0E4E4"/>
<path id="Vector_138" d="M1011.5 336.91H1012.31L1013.01 336.98H1012.76L1011.5 336.91Z" fill="#F0E4E4"/>
<path id="Vector_139" d="M1011.5 337.07H1012.31L1013.01 337.14H1012.76L1011.5 337.07Z" fill="#F0E4E4"/>
<path id="Vector_140" d="M1011.5 337.24H1012.31L1013.01 337.31H1012.76L1011.5 337.24Z" fill="#F0E4E4"/>
<path id="Vector_141" d="M1011.5 337.41H1012.31L1013.01 337.48H1012.76L1011.5 337.41Z" fill="#F0E4E4"/>
</g>
</g>
<defs>
<linearGradient id="paint0_linear" x1="-175030" y1="309917" x2="-175030" y2="100984" gradientUnits="userSpaceOnUse">
<stop stop-color="#808080" stop-opacity="0.25"/>
<stop offset="0.54" stop-color="#808080" stop-opacity="0.12"/>
<stop offset="1" stop-color="#808080" stop-opacity="0.1"/>
</linearGradient>
<linearGradient id="paint1_linear" x1="276765" y1="183650" x2="276765" y2="132032" gradientUnits="userSpaceOnUse">
<stop stop-color="#808080" stop-opacity="0.25"/>
<stop offset="0.54" stop-color="#808080" stop-opacity="0.12"/>
<stop offset="1" stop-color="#808080" stop-opacity="0.1"/>
</linearGradient>
<linearGradient id="paint2_linear" x1="136926" y1="119998" x2="136926" y2="79275.1" gradientUnits="userSpaceOnUse">
<stop stop-color="#808080" stop-opacity="0.25"/>
<stop offset="0.54" stop-color="#808080" stop-opacity="0.12"/>
<stop offset="1" stop-color="#808080" stop-opacity="0.1"/>
</linearGradient>
<linearGradient id="paint3_linear" x1="922.46" y1="458.96" x2="922.46" y2="114.99" gradientUnits="userSpaceOnUse">
<stop stop-color="#808080" stop-opacity="0.25"/>
<stop offset="0.54" stop-color="#808080" stop-opacity="0.12"/>
<stop offset="1" stop-color="#808080" stop-opacity="0.1"/>
</linearGradient>
<linearGradient id="paint4_linear" x1="13918.1" y1="11758" x2="13918.1" y2="10283.7" gradientUnits="userSpaceOnUse">
<stop stop-color="#808080" stop-opacity="0.25"/>
<stop offset="0.54" stop-color="#808080" stop-opacity="0.12"/>
<stop offset="1" stop-color="#808080" stop-opacity="0.1"/>
</linearGradient>
</defs>
</svg>
